<?xml version="1.0" encoding="UTF-8" standalone="yes"?><svg xmlns="http://www.w3.org/2000/svg" xmlns:xlink="http://www.w3.org/1999/xlink" height="552pt" style="width:376px;height:552px;" version="1.1" viewBox="0 0 376 552" width="376pt"><defs><filter height="300%" id="f1" width="300%" x="-1" y="-1"><feGaussianBlur result="blurOut" stdDeviation="2.0"/><feColorMatrix in="blurOut" result="blurOut2" type="matrix" values="0 0 0 0 0 0 0 0 0 0 0 0 0 0 0 0 0 0 .4 0"/><feOffset dx="4.0" dy="4.0" in="blurOut2" result="blurOut3"/><feBlend in="SourceGraphic" in2="blurOut3" mode="normal"/></filter></defs><g><ellipse cx="190" cy="18" fill="#000000" filter="url(#f1)" rx="10" ry="10" style="stroke: none; stroke-width: 1.0;"/><rect fill="#FEFECE" filter="url(#f1)" height="34.1328" rx="12.5" ry="12.5" style="stroke: #A80036; stroke-width: 1.5;" width="151" x="114.5" y="69"/><text fill="#000000" font-family="sans-serif" font-size="12" lengthAdjust="spacingAndGlyphs" textLength="131" x="124.5" y="90.6016">RemoteItemI.sendData</text><rect fill="#FEFECE" filter="url(#f1)" height="34.1328" rx="12.5" ry="12.5" style="stroke: #A80036; stroke-width: 1.5;" width="169" x="105.5" y="144"/><text fill="#000000" font-family="sans-serif" font-size="12" lengthAdjust="spacingAndGlyphs" textLength="149" x="115.5" y="165.6016">RemoteItemI.__tryConnect</text><rect fill="#FEFECE" filter="url(#f1)" height="34.1328" rx="12.5" ry="12.5" style="stroke: #A80036; stroke-width: 1.5;" width="184" x="98" y="219"/><text fill="#000000" font-family="sans-serif" font-size="12" lengthAdjust="spacingAndGlyphs" textLength="164" x="108" y="240.6016">RouterClientI.getRouterItems</text><rect fill="#FEFECE" filter="url(#f1)" height="34.1328" rx="12.5" ry="12.5" style="stroke: #A80036; stroke-width: 1.5;" width="194" x="93" y="294"/><text fill="#000000" font-family="sans-serif" font-size="12" lengthAdjust="spacingAndGlyphs" textLength="174" x="103" y="315.6016">RemoteItemI.__addRouterItem</text><polygon fill="#FEFECE" filter="url(#f1)" points="190,369,202,381,190,393,178,381,190,369" style="stroke: #A80036; stroke-width: 1.5;"/><rect fill="#FEFECE" filter="url(#f1)" height="34.1328" rx="12.5" ry="12.5" style="stroke: #A80036; stroke-width: 1.5;" width="178" x="6" y="450"/><text fill="#000000" font-family="sans-serif" font-size="12" lengthAdjust="spacingAndGlyphs" textLength="158" x="16" y="471.6016">RouterItemI.connectRemote</text><ellipse cx="211" cy="535" fill="none" filter="url(#f1)" rx="10" ry="10" style="stroke: #000000; stroke-width: 1.0;"/><ellipse cx="211.5" cy="535.5" fill="#000000" rx="6" ry="6" style="stroke: none; stroke-width: 1.0;"/><rect fill="#FEFECE" filter="url(#f1)" height="34.1328" rx="12.5" ry="12.5" style="stroke: #A80036; stroke-width: 1.5;" width="163" x="204.5" y="450"/><text fill="#000000" font-family="sans-serif" font-size="12" lengthAdjust="spacingAndGlyphs" textLength="143" x="214.5" y="471.6016">RouterItemI.connectLocal</text><path d="M190,28.177 C190,37.269 190,51.527 190,63.485 " fill="none" style="stroke: #A80036; stroke-width: 1.0;"/><polygon fill="#A80036" points="190,68.791,194,59.791,190,63.791,186,59.791,190,68.791" style="stroke: #A80036; stroke-width: 1.0;"/><path d="M190,103.201 C190,113.692 190,127.463 190,138.818 " fill="none" style="stroke: #A80036; stroke-width: 1.0;"/><polygon fill="#A80036" points="190,143.844,194,134.844,190,138.844,186,134.844,190,143.844" style="stroke: #A80036; stroke-width: 1.0;"/><path d="M190,178.201 C190,188.692 190,202.463 190,213.818 " fill="none" style="stroke: #A80036; stroke-width: 1.0;"/><polygon fill="#A80036" points="190,218.844,194,209.844,190,213.844,186,209.844,190,218.844" style="stroke: #A80036; stroke-width: 1.0;"/><path d="M190,253.201 C190,263.692 190,277.463 190,288.818 " fill="none" style="stroke: #A80036; stroke-width: 1.0;"/><polygon fill="#A80036" points="190,293.844,194,284.844,190,288.844,186,284.844,190,293.844" style="stroke: #A80036; stroke-width: 1.0;"/><path d="M190,328.115 C190,338.916 190,353.082 190,363.883 " fill="none" style="stroke: #A80036; stroke-width: 1.0;"/><polygon fill="#A80036" points="190,368.885,194,359.885,190,363.885,186,359.885,190,368.885" style="stroke: #A80036; stroke-width: 1.0;"/><text fill="#000000" font-family="sans-serif" font-size="13" lengthAdjust="spacingAndGlyphs" textLength="183" x="-13.0156" y="362.1965">_routerId != _remoteRouterId</text><path d="M184.057,387.255 C170.979,398.819 139.133,426.977 117.294,446.2871 " fill="none" style="stroke: #A80036; stroke-width: 1.0;"/><polygon fill="#A80036" points="113.34,449.7837,122.7316,446.8174,117.0853,446.4712,117.4316,440.825,113.34,449.7837" style="stroke: #A80036; stroke-width: 1.0;"/><text fill="#000000" font-family="sans-serif" font-size="13" lengthAdjust="spacingAndGlyphs" textLength="25" x="155" y="426.5684">true</text><path d="M123.377,484.1454 C147.165,497.68 180.041,516.3852 198,526.6036 " fill="none" style="stroke: #A80036; stroke-width: 1.0;"/><polygon fill="#A80036" points="202.65,529.2493,196.8059,521.3217,198.3043,526.7765,192.8495,528.2749,202.65,529.2493" style="stroke: #A80036; stroke-width: 1.0;"/><path d="M196.005,387.255 C209.221,398.819 241.402,426.977 263.471,446.2871 " fill="none" style="stroke: #A80036; stroke-width: 1.0;"/><polygon fill="#A80036" points="267.467,449.7837,263.3283,440.8466,263.7043,446.491,258.0599,446.867,267.467,449.7837" style="stroke: #A80036; stroke-width: 1.0;"/><text fill="#000000" font-family="sans-serif" font-size="13" lengthAdjust="spacingAndGlyphs" textLength="30" x="245" y="426.5684">false</text><path d="M267.461,484.3146 C253.243,496.8258 234.092,513.679 222.149,524.1886 " fill="none" style="stroke: #A80036; stroke-width: 1.0;"/><polygon fill="#A80036" points="218.098,527.7537,227.4971,524.8113,221.8517,524.4507,222.2123,518.8054,218.098,527.7537" style="stroke: #A80036; stroke-width: 1.0;"/></g></svg>