<?xml version="1.0" encoding="UTF-8" standalone="yes"?><svg xmlns="http://www.w3.org/2000/svg" xmlns:xlink="http://www.w3.org/1999/xlink" height="560pt" style="width:678px;height:560px;" version="1.1" viewBox="0 0 678 560" width="678pt"><defs><filter height="300%" id="f1" width="300%" x="-1" y="-1"><feGaussianBlur result="blurOut" stdDeviation="2.0"/><feColorMatrix in="blurOut" result="blurOut2" type="matrix" values="0 0 0 0 0 0 0 0 0 0 0 0 0 0 0 0 0 0 .4 0"/><feOffset dx="4.0" dy="4.0" in="blurOut2" result="blurOut3"/><feBlend in="SourceGraphic" in2="blurOut3" mode="normal"/></filter></defs><g><line style="stroke: #A80036; stroke-width: 1.0; stroke-dasharray: 5.0,5.0;" x1="62" x2="62" y1="54.9766" y2="506.0137"/><line style="stroke: #A80036; stroke-width: 1.0; stroke-dasharray: 5.0,5.0;" x1="192" x2="192" y1="54.9766" y2="506.0137"/><line style="stroke: #A80036; stroke-width: 1.0; stroke-dasharray: 5.0,5.0;" x1="366.5" x2="366.5" y1="54.9766" y2="506.0137"/><line style="stroke: #A80036; stroke-width: 1.0; stroke-dasharray: 5.0,5.0;" x1="485.5" x2="485.5" y1="54.9766" y2="506.0137"/><line style="stroke: #A80036; stroke-width: 1.0; stroke-dasharray: 5.0,5.0;" x1="611.5" x2="611.5" y1="54.9766" y2="506.0137"/><rect fill="#FEFECE" filter="url(#f1)" height="46.9766" style="stroke: #A80036; stroke-width: 1.5;" width="104" x="8" y="3"/><text fill="#000000" font-family="sans-serif" font-size="14" lengthAdjust="spacingAndGlyphs" textLength="28" x="46" y="23.5352">终端</text><text fill="#000000" font-family="sans-serif" font-size="14" lengthAdjust="spacingAndGlyphs" textLength="90" x="15" y="40.0234">RouterClientI</text><rect fill="#FEFECE" filter="url(#f1)" height="46.9766" style="stroke: #A80036; stroke-width: 1.5;" width="104" x="8" y="505.0137"/><text fill="#000000" font-family="sans-serif" font-size="14" lengthAdjust="spacingAndGlyphs" textLength="28" x="46" y="525.5488">终端</text><text fill="#000000" font-family="sans-serif" font-size="14" lengthAdjust="spacingAndGlyphs" textLength="90" x="15" y="542.0371">RouterClientI</text><rect fill="#FEFECE" filter="url(#f1)" height="30.4883" style="stroke: #A80036; stroke-width: 1.5;" width="129" x="126" y="19.4883"/><text fill="#000000" font-family="sans-serif" font-size="14" lengthAdjust="spacingAndGlyphs" textLength="115" x="133" y="40.0234">clientLoad_async</text><rect fill="#FEFECE" filter="url(#f1)" height="30.4883" style="stroke: #A80036; stroke-width: 1.5;" width="129" x="126" y="505.0137"/><text fill="#000000" font-family="sans-serif" font-size="14" lengthAdjust="spacingAndGlyphs" textLength="115" x="133" y="525.5488">clientLoad_async</text><rect fill="#FEFECE" filter="url(#f1)" height="30.4883" style="stroke: #A80036; stroke-width: 1.5;" width="100" x="314.5" y="19.4883"/><text fill="#000000" font-family="sans-serif" font-size="14" lengthAdjust="spacingAndGlyphs" textLength="86" x="321.5" y="40.0234">RouterNodeI</text><rect fill="#FEFECE" filter="url(#f1)" height="30.4883" style="stroke: #A80036; stroke-width: 1.5;" width="100" x="314.5" y="505.0137"/><text fill="#000000" font-family="sans-serif" font-size="14" lengthAdjust="spacingAndGlyphs" textLength="86" x="321.5" y="525.5488">RouterNodeI</text><rect fill="#FEFECE" filter="url(#f1)" height="30.4883" style="stroke: #A80036; stroke-width: 1.5;" width="104" x="431.5" y="19.4883"/><text fill="#000000" font-family="sans-serif" font-size="14" lengthAdjust="spacingAndGlyphs" textLength="90" x="438.5" y="40.0234">NodeListener</text><rect fill="#FEFECE" filter="url(#f1)" height="30.4883" style="stroke: #A80036; stroke-width: 1.5;" width="104" x="431.5" y="505.0137"/><text fill="#000000" font-family="sans-serif" font-size="14" lengthAdjust="spacingAndGlyphs" textLength="90" x="438.5" y="525.5488">NodeListener</text><rect fill="#FEFECE" filter="url(#f1)" height="46.9766" style="stroke: #A80036; stroke-width: 1.5;" width="120" x="549.5" y="3"/><text fill="#000000" font-family="sans-serif" font-size="14" lengthAdjust="spacingAndGlyphs" textLength="28" x="595.5" y="23.5352">资源</text><text fill="#000000" font-family="sans-serif" font-size="14" lengthAdjust="spacingAndGlyphs" textLength="106" x="556.5" y="40.0234">ResourceServer</text><rect fill="#FEFECE" filter="url(#f1)" height="46.9766" style="stroke: #A80036; stroke-width: 1.5;" width="120" x="549.5" y="505.0137"/><text fill="#000000" font-family="sans-serif" font-size="14" lengthAdjust="spacingAndGlyphs" textLength="28" x="595.5" y="525.5488">资源</text><text fill="#000000" font-family="sans-serif" font-size="14" lengthAdjust="spacingAndGlyphs" textLength="106" x="556.5" y="542.0371">ResourceServer</text><polygon fill="#FBFB77" filter="url(#f1)" points="335,69.9766,335,94.9766,393,94.9766,393,79.9766,383,69.9766,335,69.9766" style="stroke: #A80036; stroke-width: 1.0;"/><line style="stroke: #A80036; stroke-width: 1.0;" x1="383" x2="383" y1="69.9766" y2="79.9766"/><line style="stroke: #A80036; stroke-width: 1.0;" x1="393" x2="383" y1="79.9766" y2="79.9766"/><text fill="#000000" font-family="sans-serif" font-size="13" lengthAdjust="spacingAndGlyphs" textLength="37" x="341" y="87.5449">start()</text><polygon fill="#A80036" points="377.5,121.2871,367.5,125.2871,377.5,129.2871,373.5,125.2871" style="stroke: #A80036; stroke-width: 1.0;"/><line style="stroke: #A80036; stroke-width: 1.0;" x1="371.5" x2="610.5" y1="125.2871" y2="125.2871"/><text fill="#000000" font-family="sans-serif" font-size="13" font-weight="bold" lengthAdjust="spacingAndGlyphs" textLength="9" x="383.5" y="120.8555">1</text><text fill="#000000" font-family="sans-serif" font-size="13" lengthAdjust="spacingAndGlyphs" textLength="205" x="396.5" y="120.8555">S=createAgent("ResourceServer")</text><polygon fill="#FBFB77" filter="url(#f1)" points="295,138.5977,295,163.5977,433,163.5977,433,148.5977,423,138.5977,295,138.5977" style="stroke: #A80036; stroke-width: 1.0;"/><line style="stroke: #A80036; stroke-width: 1.0;" x1="423" x2="423" y1="138.5977" y2="148.5977"/><line style="stroke: #A80036; stroke-width: 1.0;" x1="433" x2="423" y1="148.5977" y2="148.5977"/><text fill="#000000" font-family="sans-serif" font-size="13" lengthAdjust="spacingAndGlyphs" textLength="117" x="301" y="156.166">onUpdateConfigs()</text><polygon fill="#A80036" points="599.5,189.9082,609.5,193.9082,599.5,197.9082,603.5,193.9082" style="stroke: #A80036; stroke-width: 1.0;"/><line style="stroke: #A80036; stroke-width: 1.0;" x1="366.5" x2="605.5" y1="193.9082" y2="193.9082"/><text fill="#000000" font-family="sans-serif" font-size="13" font-weight="bold" lengthAdjust="spacingAndGlyphs" textLength="9" x="373.5" y="189.4766">2</text><text fill="#000000" font-family="sans-serif" font-size="13" lengthAdjust="spacingAndGlyphs" textLength="185" x="386.5" y="189.4766">S.updateLoadResourcePrefix()</text><polygon fill="#FBFB77" filter="url(#f1)" points="22,207.2188,22,232.2188,97,232.2188,97,217.2188,87,207.2188,22,207.2188" style="stroke: #A80036; stroke-width: 1.0;"/><line style="stroke: #A80036; stroke-width: 1.0;" x1="87" x2="87" y1="207.2188" y2="217.2188"/><line style="stroke: #A80036; stroke-width: 1.0;" x1="97" x2="87" y1="217.2188" y2="217.2188"/><text fill="#000000" font-family="sans-serif" font-size="13" lengthAdjust="spacingAndGlyphs" textLength="54" x="28" y="224.7871">onSchd()</text><polygon fill="#A80036" points="180.5,258.5293,190.5,262.5293,180.5,266.5293,184.5,262.5293" style="stroke: #A80036; stroke-width: 1.0;"/><line style="stroke: #A80036; stroke-width: 1.0;" x1="62" x2="186.5" y1="262.5293" y2="262.5293"/><text fill="#000000" font-family="sans-serif" font-size="13" font-weight="bold" lengthAdjust="spacingAndGlyphs" textLength="9" x="69" y="258.0977">3</text><text fill="#000000" font-family="sans-serif" font-size="13" lengthAdjust="spacingAndGlyphs" textLength="33" x="82" y="258.0977">new()</text><polygon fill="#FBFB77" filter="url(#f1)" points="154,275.8398,154,300.8398,226,300.8398,226,285.8398,216,275.8398,154,275.8398" style="stroke: #A80036; stroke-width: 1.0;"/><line style="stroke: #A80036; stroke-width: 1.0;" x1="216" x2="216" y1="275.8398" y2="285.8398"/><line style="stroke: #A80036; stroke-width: 1.0;" x1="226" x2="216" y1="285.8398" y2="285.8398"/><text fill="#000000" font-family="sans-serif" font-size="13" lengthAdjust="spacingAndGlyphs" textLength="51" x="160" y="293.4082">__start()</text><polygon fill="#A80036" points="203.5,327.1504,193.5,331.1504,203.5,335.1504,199.5,331.1504" style="stroke: #A80036; stroke-width: 1.0;"/><line style="stroke: #A80036; stroke-width: 1.0;" x1="197.5" x2="365.5" y1="331.1504" y2="331.1504"/><text fill="#000000" font-family="sans-serif" font-size="13" font-weight="bold" lengthAdjust="spacingAndGlyphs" textLength="9" x="209.5" y="326.7188">4</text><text fill="#000000" font-family="sans-serif" font-size="13" lengthAdjust="spacingAndGlyphs" textLength="137" x="222.5" y="326.7188">R=createAgent(rand())</text><polygon fill="#A80036" points="354.5,356.4609,364.5,360.4609,354.5,360.4609" style="stroke: #A80036; stroke-width: 1.0;"/><line style="stroke: #A80036; stroke-width: 1.0; stroke-dasharray: 2.0,2.0;" x1="192.5" x2="365.5" y1="360.4609" y2="360.4609"/><text fill="#000000" font-family="sans-serif" font-size="13" font-weight="bold" lengthAdjust="spacingAndGlyphs" textLength="9" x="199.5" y="356.0293">5</text><text fill="#000000" font-family="sans-serif" font-size="13" lengthAdjust="spacingAndGlyphs" textLength="127" x="212.5" y="356.0293">R.clientLoad_begin()</text><polygon fill="#A80036" points="473.5,385.7715,483.5,389.7715,473.5,393.7715,477.5,389.7715" style="stroke: #A80036; stroke-width: 1.0;"/><line style="stroke: #A80036; stroke-width: 1.0;" x1="366.5" x2="479.5" y1="389.7715" y2="389.7715"/><text fill="#000000" font-family="sans-serif" font-size="13" font-weight="bold" lengthAdjust="spacingAndGlyphs" textLength="9" x="373.5" y="385.3398">6</text><text fill="#000000" font-family="sans-serif" font-size="13" lengthAdjust="spacingAndGlyphs" textLength="82" x="386.5" y="385.3398">onSortDists()</text><polygon fill="#A80036" points="203.5,420.082,193.5,420.082,203.5,424.082" style="stroke: #A80036; stroke-width: 1.0;"/><line style="stroke: #A80036; stroke-width: 1.0; stroke-dasharray: 2.0,2.0;" x1="192.5" x2="365.5" y1="419.082" y2="419.082"/><text fill="#000000" font-family="sans-serif" font-size="13" font-weight="bold" lengthAdjust="spacingAndGlyphs" textLength="9" x="209.5" y="414.6504">7</text><text fill="#000000" font-family="sans-serif" font-size="13" lengthAdjust="spacingAndGlyphs" textLength="115" x="222.5" y="414.6504">R.clientLoad_end()</text><polygon fill="#FBFB77" filter="url(#f1)" points="309,432.3926,309,457.3926,420,457.3926,420,442.3926,410,432.3926,309,432.3926" style="stroke: #A80036; stroke-width: 1.0;"/><line style="stroke: #A80036; stroke-width: 1.0;" x1="410" x2="410" y1="432.3926" y2="442.3926"/><line style="stroke: #A80036; stroke-width: 1.0;" x1="420" x2="410" y1="442.3926" y2="442.3926"/><text fill="#000000" font-family="sans-serif" font-size="13" lengthAdjust="spacingAndGlyphs" textLength="90" x="315" y="449.9609">onDeactivate()</text><polygon fill="#A80036" points="599.5,483.7031,609.5,487.7031,599.5,491.7031,603.5,487.7031" style="stroke: #A80036; stroke-width: 1.0;"/><line style="stroke: #A80036; stroke-width: 1.0;" x1="366.5" x2="605.5" y1="487.7031" y2="487.7031"/><text fill="#000000" font-family="sans-serif" font-size="13" font-weight="bold" lengthAdjust="spacingAndGlyphs" textLength="9" x="373.5" y="483.2715">8</text><text fill="#000000" font-family="sans-serif" font-size="13" lengthAdjust="spacingAndGlyphs" textLength="135" x="386.5" y="483.2715">S.updateResource(-1)</text></g></svg>