<?xml version="1.0" encoding="UTF-8" standalone="yes"?><svg xmlns="http://www.w3.org/2000/svg" xmlns:xlink="http://www.w3.org/1999/xlink" height="795pt" style="width:1003px;height:795px;" version="1.1" viewBox="0 0 1003 795" width="1003pt"><defs><filter height="300%" id="f1" width="300%" x="-1" y="-1"><feGaussianBlur result="blurOut" stdDeviation="2.0"/><feColorMatrix in="blurOut" result="blurOut2" type="matrix" values="0 0 0 0 0 0 0 0 0 0 0 0 0 0 0 0 0 0 .4 0"/><feOffset dx="4.0" dy="4.0" in="blurOut2" result="blurOut3"/><feBlend in="SourceGraphic" in2="blurOut3" mode="normal"/></filter></defs><g><rect fill="#FFFFFF" filter="url(#f1)" height="117" style="stroke: #000000; stroke-width: 2.0;" width="146" x="68" y="512"/><path d="M143,513 L143,521.4883 L133,531.4883 L68,531.4883 " fill="#FFFFFF" style="stroke: #000000; stroke-width: 2.0;"/><text fill="#000000" font-family="sans-serif" font-size="14" font-weight="bold" lengthAdjust="spacingAndGlyphs" textLength="65" x="71" y="525.5352">Common</text><rect fill="#FFFFFF" filter="url(#f1)" height="232.5" style="stroke: #000000; stroke-width: 2.0;" width="254" x="14" y="16.5"/><path d="M89,17.5 L89,25.9883 L79,35.9883 L14,35.9883 " fill="#FFFFFF" style="stroke: #000000; stroke-width: 2.0;"/><text fill="#000000" font-family="sans-serif" font-size="14" font-weight="bold" lengthAdjust="spacingAndGlyphs" textLength="65" x="17" y="30.0352">Resource</text><rect fill="#FFFFFF" filter="url(#f1)" height="317.5" style="stroke: #000000; stroke-width: 2.0;" width="720" x="276" y="108.5"/><path d="M343,109.5 L343,117.9883 L333,127.9883 L276,127.9883 " fill="#FFFFFF" style="stroke: #000000; stroke-width: 2.0;"/><text fill="#000000" font-family="sans-serif" font-size="14" font-weight="bold" lengthAdjust="spacingAndGlyphs" textLength="57" x="279" y="122.0352">Content</text><rect fill="#FFFFFF" filter="url(#f1)" height="195" style="stroke: #000000; stroke-width: 2.0;" width="710" x="233" y="473"/><path d="M307,474 L307,482.4883 L297,492.4883 L233,492.4883 " fill="#FFFFFF" style="stroke: #000000; stroke-width: 2.0;"/><text fill="#000000" font-family="sans-serif" font-size="14" font-weight="bold" lengthAdjust="spacingAndGlyphs" textLength="64" x="236" y="486.5352">Endpoint</text><rect fill="#FEFECE" filter="url(#f1)" height="65.9102" style="stroke: #A80036; stroke-width: 1.5;" width="130" x="76" y="555"/><ellipse cx="95.05" cy="571" fill="#B4A7E5" rx="11" ry="11" style="stroke: #A80036; stroke-width: 1.0;"/><path d="M90.9777,566.7651 L90.9777,564.6069 L98.3571,564.6069 L98.3571,566.7651 L95.8918,566.7651 L95.8918,574.8418 L98.3571,574.8418 L98.3571,577 L90.9777,577 L90.9777,574.8418 L93.4431,574.8418 L93.4431,566.7651 Z "/><text fill="#000000" font-family="sans-serif" font-size="12" font-style="italic" lengthAdjust="spacingAndGlyphs" textLength="89" x="109.95" y="575.5352">ResourceServer</text><line style="stroke: #A80036; stroke-width: 1.5;" x1="77" x2="205" y1="587" y2="587"/><ellipse cx="87" cy="598.9775" fill="#84BE84" rx="3" ry="3" style="stroke: #038048; stroke-width: 1.0;"/><text fill="#000000" font-family="sans-serif" font-size="11" lengthAdjust="spacingAndGlyphs" textLength="84" x="96" y="601.6348">loadResource();</text><ellipse cx="87" cy="611.9326" fill="#84BE84" rx="3" ry="3" style="stroke: #038048; stroke-width: 1.0;"/><text fill="#000000" font-family="sans-serif" font-size="11" lengthAdjust="spacingAndGlyphs" textLength="104" x="96" y="614.5898">updateResources();</text><rect fill="#FEFECE" filter="url(#f1)" height="99.8203" style="stroke: #A80036; stroke-width: 1.5;" width="238" x="22" y="141"/><ellipse cx="90.75" cy="157" fill="#ADD1B2" rx="11" ry="11" style="stroke: #A80036; stroke-width: 1.0;"/><path d="M93.7231,162.6431 Q93.1421,162.9419 92.5029,163.0913 Q91.8638,163.2407 91.1582,163.2407 Q88.6514,163.2407 87.3315,161.5889 Q86.0117,159.937 86.0117,156.8159 Q86.0117,153.6865 87.3315,152.0347 Q88.6514,150.3828 91.1582,150.3828 Q91.8638,150.3828 92.5112,150.5322 Q93.1587,150.6816 93.7231,150.9805 L93.7231,153.7031 Q93.0923,153.1221 92.4988,152.8523 Q91.9053,152.5825 91.2744,152.5825 Q89.9297,152.5825 89.2449,153.6492 Q88.5601,154.7158 88.5601,156.8159 Q88.5601,158.9077 89.2449,159.9744 Q89.9297,161.041 91.2744,161.041 Q91.9053,161.041 92.4988,160.7712 Q93.0923,160.5015 93.7231,159.9204 Z "/><text fill="#000000" font-family="sans-serif" font-size="12" lengthAdjust="spacingAndGlyphs" textLength="92" x="111.25" y="161.5352">ResourceServerI</text><line style="stroke: #A80036; stroke-width: 1.5;" x1="23" x2="259" y1="173" y2="173"/><rect fill="none" height="6" style="stroke: #C82930; stroke-width: 1.0;" width="6" x="30" y="181.9775"/><text fill="#000000" font-family="sans-serif" font-size="11" lengthAdjust="spacingAndGlyphs" textLength="212" x="42" y="187.6348">map&lt;ResourceTypeI&gt; _resourceTypes;</text><line style="stroke: #A80036; stroke-width: 1.5;" x1="23" x2="259" y1="193.9551" y2="193.9551"/><ellipse cx="33" cy="205.9326" fill="#84BE84" rx="3" ry="3" style="stroke: #038048; stroke-width: 1.0;"/><text fill="#000000" font-family="sans-serif" font-size="11" lengthAdjust="spacingAndGlyphs" textLength="117" x="42" y="208.5898">allocEndpoint_begin()</text><ellipse cx="33" cy="218.8877" fill="#84BE84" rx="3" ry="3" style="stroke: #038048; stroke-width: 1.0;"/><text fill="#000000" font-family="sans-serif" font-size="11" lengthAdjust="spacingAndGlyphs" textLength="112" x="42" y="221.5449">allocContent_begin()</text><ellipse cx="33" cy="231.8428" fill="#84BE84" rx="3" ry="3" style="stroke: #038048; stroke-width: 1.0;"/><text fill="#000000" font-family="sans-serif" font-size="11" lengthAdjust="spacingAndGlyphs" textLength="117" x="42" y="234.5">loadResource_begin()</text><ellipse cx="141" cy="64.5" fill="#FEFECE" filter="url(#f1)" rx="5" ry="5" style="stroke: #A80036; stroke-width: 1.5;"/><text fill="#000000" font-family="sans-serif" font-size="12" lengthAdjust="spacingAndGlyphs" textLength="89" x="96.5" y="81.1016">ResourceServer</text><rect fill="#FEFECE" filter="url(#f1)" height="78.8652" style="stroke: #A80036; stroke-width: 1.5;" width="121" x="514.5" y="151.5"/><ellipse cx="529.5" cy="167.5" fill="#ADD1B2" rx="11" ry="11" style="stroke: #A80036; stroke-width: 1.0;"/><path d="M532.4731,173.1431 Q531.8921,173.4419 531.2529,173.5913 Q530.6138,173.7407 529.9082,173.7407 Q527.4014,173.7407 526.0815,172.0889 Q524.7617,170.437 524.7617,167.3159 Q524.7617,164.1865 526.0815,162.5347 Q527.4014,160.8828 529.9082,160.8828 Q530.6138,160.8828 531.2612,161.0322 Q531.9087,161.1816 532.4731,161.4805 L532.4731,164.2031 Q531.8423,163.6221 531.2488,163.3523 Q530.6553,163.0825 530.0244,163.0825 Q528.6797,163.0825 527.9949,164.1492 Q527.3101,165.2158 527.3101,167.3159 Q527.3101,169.4077 527.9949,170.4744 Q528.6797,171.541 530.0244,171.541 Q530.6553,171.541 531.2488,171.2712 Q531.8423,171.0015 532.4731,170.4204 Z "/><text fill="#000000" font-family="sans-serif" font-size="12" lengthAdjust="spacingAndGlyphs" textLength="89" x="543.5" y="172.0352">ContentSessionI</text><line style="stroke: #A80036; stroke-width: 1.5;" x1="515.5" x2="634.5" y1="183.5" y2="183.5"/><ellipse cx="525.5" cy="195.4775" fill="#84BE84" rx="3" ry="3" style="stroke: #038048; stroke-width: 1.0;"/><text fill="#000000" font-family="sans-serif" font-size="11" lengthAdjust="spacingAndGlyphs" textLength="61" x="534.5" y="198.1348">sendData();</text><ellipse cx="525.5" cy="208.4326" fill="#84BE84" rx="3" ry="3" style="stroke: #038048; stroke-width: 1.0;"/><text fill="#000000" font-family="sans-serif" font-size="11" lengthAdjust="spacingAndGlyphs" textLength="74" x="534.5" y="211.0898">onRecvData();</text><ellipse cx="525.5" cy="221.3877" fill="#84BE84" rx="3" ry="3" style="stroke: #038048; stroke-width: 1.0;"/><text fill="#000000" font-family="sans-serif" font-size="11" lengthAdjust="spacingAndGlyphs" textLength="39" x="534.5" y="224.0449">close();</text><rect fill="#FEFECE" filter="url(#f1)" height="99.8203" style="stroke: #A80036; stroke-width: 1.5;" width="359" x="445.5" y="318"/><ellipse cx="597.25" cy="334" fill="#ADD1B2" rx="11" ry="11" style="stroke: #A80036; stroke-width: 1.0;"/><path d="M600.2231,339.6431 Q599.6421,339.9419 599.0029,340.0913 Q598.3638,340.2407 597.6582,340.2407 Q595.1514,340.2407 593.8315,338.5889 Q592.5117,336.937 592.5117,333.8159 Q592.5117,330.6865 593.8315,329.0347 Q595.1514,327.3828 597.6582,327.3828 Q598.3638,327.3828 599.0112,327.5322 Q599.6587,327.6816 600.2231,327.9805 L600.2231,330.7031 Q599.5923,330.1221 598.9988,329.8523 Q598.4053,329.5825 597.7744,329.5825 Q596.4297,329.5825 595.7449,330.6492 Q595.0601,331.7158 595.0601,333.8159 Q595.0601,335.9077 595.7449,336.9744 Q596.4297,338.041 597.7744,338.041 Q598.4053,338.041 598.9988,337.7712 Q599.5923,337.5015 600.2231,336.9204 Z "/><text fill="#000000" font-family="sans-serif" font-size="12" lengthAdjust="spacingAndGlyphs" textLength="47" x="617.75" y="338.5352">ContentI</text><line style="stroke: #A80036; stroke-width: 1.5;" x1="446.5" x2="803.5" y1="350" y2="350"/><rect fill="none" height="6" style="stroke: #C82930; stroke-width: 1.0;" width="6" x="453.5" y="358.9775"/><text fill="#000000" font-family="sans-serif" font-size="11" lengthAdjust="spacingAndGlyphs" textLength="163" x="465.5" y="364.6348">ContentDirectI _contentDirect;</text><rect fill="none" height="6" style="stroke: #C82930; stroke-width: 1.0;" width="6" x="453.5" y="371.9326"/><text fill="#000000" font-family="sans-serif" font-size="11" lengthAdjust="spacingAndGlyphs" textLength="187" x="465.5" y="377.5898">map&lt;ContentSessionI&gt; _sessions;</text><line style="stroke: #A80036; stroke-width: 1.5;" x1="446.5" x2="803.5" y1="383.9102" y2="383.9102"/><rect fill="#F24D5C" height="6" style="stroke: #C82930; stroke-width: 1.0;" width="6" x="453.5" y="392.8877"/><text fill="#000000" font-family="sans-serif" font-size="11" lengthAdjust="spacingAndGlyphs" textLength="333" x="465.5" y="398.5449">__onCreateSession(endpoint){new ContentSessionI(endpoint)}</text><rect fill="#F24D5C" height="6" style="stroke: #C82930; stroke-width: 1.0;" width="6" x="453.5" y="405.8428"/><text fill="#000000" font-family="sans-serif" font-size="11" lengthAdjust="spacingAndGlyphs" textLength="211" x="465.5" y="411.5">__onCreateDirect(){new ContentDirectI}</text><rect fill="#FEFECE" filter="url(#f1)" height="65.9102" style="stroke: #A80036; stroke-width: 1.5;" width="113" x="874.5" y="335"/><ellipse cx="889.5" cy="351" fill="#ADD1B2" rx="11" ry="11" style="stroke: #A80036; stroke-width: 1.0;"/><path d="M892.4731,356.6431 Q891.8921,356.9419 891.2529,357.0913 Q890.6138,357.2407 889.9082,357.2407 Q887.4014,357.2407 886.0815,355.5889 Q884.7617,353.937 884.7617,350.8159 Q884.7617,347.6865 886.0815,346.0347 Q887.4014,344.3828 889.9082,344.3828 Q890.6138,344.3828 891.2612,344.5322 Q891.9087,344.6816 892.4731,344.9805 L892.4731,347.7031 Q891.8423,347.1221 891.2488,346.8523 Q890.6553,346.5825 890.0244,346.5825 Q888.6797,346.5825 887.9949,347.6492 Q887.3101,348.7158 887.3101,350.8159 Q887.3101,352.9077 887.9949,353.9744 Q888.6797,355.041 890.0244,355.041 Q890.6553,355.041 891.2488,354.7712 Q891.8423,354.5015 892.4731,353.9204 Z "/><text fill="#000000" font-family="sans-serif" font-size="12" lengthAdjust="spacingAndGlyphs" textLength="81" x="903.5" y="355.5352">ContentDirectI</text><line style="stroke: #A80036; stroke-width: 1.5;" x1="875.5" x2="986.5" y1="367" y2="367"/><rect fill="#F24D5C" height="6" style="stroke: #C82930; stroke-width: 1.0;" width="6" x="882.5" y="375.9775"/><text fill="#000000" font-family="sans-serif" font-size="11" lengthAdjust="spacingAndGlyphs" textLength="54" x="894.5" y="381.6348">connect();</text><rect fill="#F24D5C" height="6" style="stroke: #C82930; stroke-width: 1.0;" width="6" x="882.5" y="388.9326"/><text fill="#000000" font-family="sans-serif" font-size="11" lengthAdjust="spacingAndGlyphs" textLength="65" x="894.5" y="394.5898">reconnect();</text><rect fill="#FEFECE" filter="url(#f1)" height="65.9102" style="stroke: #A80036; stroke-width: 1.5;" width="126" x="284" y="335"/><ellipse cx="303.95" cy="351" fill="#ADD1B2" rx="11" ry="11" style="stroke: #A80036; stroke-width: 1.0;"/><path d="M306.9231,356.6431 Q306.3421,356.9419 305.7029,357.0913 Q305.0638,357.2407 304.3582,357.2407 Q301.8514,357.2407 300.5315,355.5889 Q299.2117,353.937 299.2117,350.8159 Q299.2117,347.6865 300.5315,346.0347 Q301.8514,344.3828 304.3582,344.3828 Q305.0638,344.3828 305.7112,344.5322 Q306.3587,344.6816 306.9231,344.9805 L306.9231,347.7031 Q306.2923,347.1221 305.6988,346.8523 Q305.1053,346.5825 304.4744,346.5825 Q303.1297,346.5825 302.4449,347.6492 Q301.7601,348.7158 301.7601,350.8159 Q301.7601,352.9077 302.4449,353.9744 Q303.1297,355.041 304.4744,355.041 Q305.1053,355.041 305.6988,354.7712 Q306.2923,354.5015 306.9231,353.9204 Z "/><text fill="#000000" font-family="sans-serif" font-size="12" lengthAdjust="spacingAndGlyphs" textLength="83" x="319.05" y="355.5352">ContentServerI</text><line style="stroke: #A80036; stroke-width: 1.5;" x1="285" x2="409" y1="367" y2="367"/><ellipse cx="295" cy="378.9775" fill="#84BE84" rx="3" ry="3" style="stroke: #038048; stroke-width: 1.0;"/><text fill="#000000" font-family="sans-serif" font-size="11" lengthAdjust="spacingAndGlyphs" textLength="100" x="304" y="381.6348">addContentType();</text><rect fill="#F24D5C" height="6" style="stroke: #C82930; stroke-width: 1.0;" width="6" x="292" y="388.9326"/><text fill="#000000" font-family="sans-serif" font-size="11" lengthAdjust="spacingAndGlyphs" textLength="98" x="304" y="394.5898">updateResource();</text><ellipse cx="931" cy="191" fill="#FEFECE" filter="url(#f1)" rx="5" ry="5" style="stroke: #A80036; stroke-width: 1.5;"/><text fill="#000000" font-family="sans-serif" font-size="12" lengthAdjust="spacingAndGlyphs" textLength="78" x="892" y="207.6016">ContentDirect</text><ellipse cx="676" cy="191" fill="#FEFECE" filter="url(#f1)" rx="5" ry="5" style="stroke: #A80036; stroke-width: 1.5;"/><text fill="#000000" font-family="sans-serif" font-size="12" lengthAdjust="spacingAndGlyphs" textLength="44" x="654" y="207.6016">Content</text><ellipse cx="347" cy="191" fill="#FEFECE" filter="url(#f1)" rx="5" ry="5" style="stroke: #A80036; stroke-width: 1.5;"/><text fill="#000000" font-family="sans-serif" font-size="12" lengthAdjust="spacingAndGlyphs" textLength="80" x="307" y="207.6016">ContentServer</text><rect fill="#FEFECE" filter="url(#f1)" height="32" style="stroke: #A80036; stroke-width: 1.5;" width="120" x="815" y="572"/><ellipse cx="830" cy="588" fill="#ADD1B2" rx="11" ry="11" style="stroke: #A80036; stroke-width: 1.0;"/><path d="M832.9731,593.6431 Q832.3921,593.9419 831.7529,594.0913 Q831.1138,594.2407 830.4082,594.2407 Q827.9014,594.2407 826.5815,592.5889 Q825.2617,590.937 825.2617,587.8159 Q825.2617,584.6865 826.5815,583.0347 Q827.9014,581.3828 830.4082,581.3828 Q831.1138,581.3828 831.7612,581.5322 Q832.4087,581.6816 832.9731,581.9805 L832.9731,584.7031 Q832.3423,584.1221 831.7488,583.8523 Q831.1553,583.5825 830.5244,583.5825 Q829.1797,583.5825 828.4949,584.6492 Q827.8101,585.7158 827.8101,587.8159 Q827.8101,589.9077 828.4949,590.9744 Q829.1797,592.041 830.5244,592.041 Q831.1553,592.041 831.7488,591.7712 Q832.3423,591.5015 832.9731,590.9204 Z "/><text fill="#000000" font-family="sans-serif" font-size="12" lengthAdjust="spacingAndGlyphs" textLength="88" x="844" y="592.5352">EndpointDirectI</text><rect fill="#FEFECE" filter="url(#f1)" height="143.6406" style="stroke: #A80036; stroke-width: 1.5;" width="242" x="538" y="516"/><ellipse cx="627.75" cy="532" fill="#A9DCDF" rx="11" ry="11" style="stroke: #A80036; stroke-width: 1.0;"/><path d="M627.8633,527.3481 L626.7095,532.4199 L629.0254,532.4199 Z M626.3691,525.1069 L629.3657,525.1069 L632.7109,537.5 L630.2622,537.5 L629.4985,534.437 L626.2197,534.437 L625.4727,537.5 L623.0239,537.5 Z "/><text fill="#000000" font-family="sans-serif" font-size="12" font-style="italic" lengthAdjust="spacingAndGlyphs" textLength="54" x="648.25" y="536.5352">EndpointI</text><line style="stroke: #A80036; stroke-width: 1.5;" x1="539" x2="779" y1="548" y2="548"/><ellipse cx="549" cy="559.9775" fill="#84BE84" rx="3" ry="3" style="stroke: #038048; stroke-width: 1.0;"/><text fill="#000000" font-family="sans-serif" font-size="11" lengthAdjust="spacingAndGlyphs" textLength="152" x="558" y="562.6348">sendClientData(mpath,data);</text><ellipse cx="549" cy="572.9326" fill="#84BE84" rx="3" ry="3" style="stroke: #038048; stroke-width: 1.0;"/><text fill="#000000" font-family="sans-serif" font-size="11" lengthAdjust="spacingAndGlyphs" textLength="164" x="558" y="575.5898">sendContentData(mpath,data);</text><rect fill="#F24D5C" height="6" style="stroke: #C82930; stroke-width: 1.0;" width="6" x="546" y="582.8877"/><text fill="#000000" font-family="sans-serif" font-size="11" lengthAdjust="spacingAndGlyphs" textLength="216" x="558" y="588.5449">__onCreateDirect(){new EndpointDirectI}</text><rect fill="#F24D5C" height="6" style="stroke: #C82930; stroke-width: 1.0;" width="6" x="546" y="595.8428"/><text fill="#000000" font-family="sans-serif" font-size="11" lengthAdjust="spacingAndGlyphs" textLength="121" x="558" y="601.5">onRecvClientData()=0;</text><rect fill="#F24D5C" height="6" style="stroke: #C82930; stroke-width: 1.0;" width="6" x="546" y="608.7979"/><text fill="#000000" font-family="sans-serif" font-size="11" lengthAdjust="spacingAndGlyphs" textLength="133" x="558" y="614.4551">onRecvContentData()=0;</text><rect fill="#F24D5C" height="6" style="stroke: #C82930; stroke-width: 1.0;" width="6" x="546" y="621.7529"/><text fill="#000000" font-family="sans-serif" font-size="11" lengthAdjust="spacingAndGlyphs" textLength="154" x="558" y="627.4102">__onClientConnectStart()=0;</text><rect fill="#F24D5C" height="6" style="stroke: #C82930; stroke-width: 1.0;" width="6" x="546" y="634.708"/><text fill="#000000" font-family="sans-serif" font-size="11" lengthAdjust="spacingAndGlyphs" textLength="162" x="558" y="640.3652">__onClientConnectResult()=0;</text><rect fill="#F24D5C" height="6" style="stroke: #C82930; stroke-width: 1.0;" width="6" x="546" y="647.6631"/><text fill="#000000" font-family="sans-serif" font-size="11" lengthAdjust="spacingAndGlyphs" textLength="141" x="558" y="653.3203">__onContentConnect()=0;</text><rect fill="#FEFECE" filter="url(#f1)" height="65.9102" style="stroke: #A80036; stroke-width: 1.5;" width="262" x="241" y="555"/><ellipse cx="322.75" cy="571" fill="#A9DCDF" rx="11" ry="11" style="stroke: #A80036; stroke-width: 1.0;"/><path d="M322.8633,566.3481 L321.7095,571.4199 L324.0254,571.4199 Z M321.3691,564.1069 L324.3657,564.1069 L327.7109,576.5 L325.2622,576.5 L324.4985,573.437 L321.2197,573.437 L320.4727,576.5 L318.0239,576.5 Z "/><text fill="#000000" font-family="sans-serif" font-size="12" font-style="italic" lengthAdjust="spacingAndGlyphs" textLength="90" x="343.25" y="575.5352">EndpointServerI</text><line style="stroke: #A80036; stroke-width: 1.5;" x1="242" x2="502" y1="587" y2="587"/><ellipse cx="252" cy="598.9775" fill="#84BE84" rx="3" ry="3" style="stroke: #038048; stroke-width: 1.0;"/><text fill="#000000" font-family="sans-serif" font-size="11" lengthAdjust="spacingAndGlyphs" textLength="236" x="261" y="601.6348">allocEndpoint(endpoint,content,outParams);</text><rect fill="#F24D5C" height="6" style="stroke: #C82930; stroke-width: 1.0;" width="6" x="249" y="608.9326"/><text fill="#000000" font-family="sans-serif" font-size="11" lengthAdjust="spacingAndGlyphs" textLength="193" x="261" y="614.5898">__onCreateEndpoint(outParams)=0;</text><rect fill="#FEFECE" filter="url(#f1)" height="32" style="stroke: #A80036; stroke-width: 1.5;" width="117" x="600.5" y="738"/><ellipse cx="615.5" cy="754" fill="#ADD1B2" rx="11" ry="11" style="stroke: #A80036; stroke-width: 1.0;"/><path d="M618.4731,759.6431 Q617.8921,759.9419 617.2529,760.0913 Q616.6138,760.2407 615.9082,760.2407 Q613.4014,760.2407 612.0815,758.5889 Q610.7617,756.937 610.7617,753.8159 Q610.7617,750.6865 612.0815,749.0347 Q613.4014,747.3828 615.9082,747.3828 Q616.6138,747.3828 617.2612,747.5322 Q617.9087,747.6816 618.4731,747.9805 L618.4731,750.7031 Q617.8423,750.1221 617.2488,749.8523 Q616.6553,749.5825 616.0244,749.5825 Q614.6797,749.5825 613.9949,750.6492 Q613.3101,751.7158 613.3101,753.8159 Q613.3101,755.9077 613.9949,756.9744 Q614.6797,758.041 616.0244,758.041 Q616.6553,758.041 617.2488,757.7712 Q617.8423,757.5015 618.4731,756.9204 Z "/><text fill="#000000" font-family="sans-serif" font-size="12" lengthAdjust="spacingAndGlyphs" textLength="85" x="629.5" y="758.5352">EndpointRelayI</text><rect fill="#FEFECE" filter="url(#f1)" height="65.9102" style="stroke: #A80036; stroke-width: 1.5;" width="322" x="211" y="721"/><ellipse cx="307.25" cy="737" fill="#ADD1B2" rx="11" ry="11" style="stroke: #A80036; stroke-width: 1.0;"/><path d="M310.2231,742.6431 Q309.6421,742.9419 309.0029,743.0913 Q308.3638,743.2407 307.6582,743.2407 Q305.1514,743.2407 303.8315,741.5889 Q302.5117,739.937 302.5117,736.8159 Q302.5117,733.6865 303.8315,732.0347 Q305.1514,730.3828 307.6582,730.3828 Q308.3638,730.3828 309.0112,730.5322 Q309.6587,730.6816 310.2231,730.9805 L310.2231,733.7031 Q309.5923,733.1221 308.9988,732.8523 Q308.4053,732.5825 307.7744,732.5825 Q306.4297,732.5825 305.7449,733.6492 Q305.0601,734.7158 305.0601,736.8159 Q305.0601,738.9077 305.7449,739.9744 Q306.4297,741.041 307.7744,741.041 Q308.4053,741.041 308.9988,740.7712 Q309.5923,740.5015 310.2231,739.9204 Z "/><text fill="#000000" font-family="sans-serif" font-size="12" lengthAdjust="spacingAndGlyphs" textLength="121" x="327.75" y="741.5352">EndpointRelayServerI</text><line style="stroke: #A80036; stroke-width: 1.5;" x1="212" x2="532" y1="753" y2="753"/><ellipse cx="222" cy="764.9775" fill="#84BE84" rx="3" ry="3" style="stroke: #038048; stroke-width: 1.0;"/><text fill="#000000" font-family="sans-serif" font-size="11" lengthAdjust="spacingAndGlyphs" textLength="296" x="231" y="767.6348">EndpointRelayServerI(){addContentType("PacketRelay")}</text><rect fill="#F24D5C" height="6" style="stroke: #C82930; stroke-width: 1.0;" width="6" x="219" y="774.9326"/><text fill="#000000" font-family="sans-serif" font-size="11" lengthAdjust="spacingAndGlyphs" textLength="228" x="231" y="780.5898">__onCreateEndpoint(){new EndpointRelayI}</text><path d="M141,241.228 C141,321.247 141,477.791 141,549.501 " fill="none" style="stroke: #A80036; stroke-width: 1.0; stroke-dasharray: 7.0,7.0;"/><polygon fill="#A80036" points="141,554.93,145,545.93,141,549.93,137,545.93,141,554.93" style="stroke: #A80036; stroke-width: 1.0;"/><text fill="#000000" font-family="sans-serif" font-size="13" lengthAdjust="spacingAndGlyphs" textLength="52" x="142" y="373.0684">查询资源</text><path d="M141,69.642 C141,80.823 141,112.673 141,140.8 " fill="none" style="stroke: #A80036; stroke-width: 1.0;"/><path d="M586.097,230.838 C592.344,252.704 600.29,280.515 607.37,305.295 " fill="none" style="stroke: #A80036; stroke-width: 1.0;"/><polygon fill="#A80036" points="610.98,317.929,613.1778,311.061,607.6833,306.3907,605.4856,313.2587,610.98,317.929" style="stroke: #A80036; stroke-width: 1.0;"/><text fill="#000000" font-family="sans-serif" font-size="13" lengthAdjust="spacingAndGlyphs" textLength="6" x="602.5866" y="307.4359">*</text><path d="M817.65,368 C836.505,368 855.361,368 874.217,368 " fill="none" style="stroke: #A80036; stroke-width: 1.0;"/><polygon fill="#A80036" points="804.596,368,810.596,372,816.596,368,810.596,364,804.596,368" style="stroke: #A80036; stroke-width: 1.0;"/><text fill="#000000" font-family="sans-serif" font-size="13" lengthAdjust="spacingAndGlyphs" textLength="8" x="812.3415" y="365.2623">1</text><path d="M198.931,241.213 C232.756,269.948 274.659,305.545 305.246,331.53 " fill="none" style="stroke: #A80036; stroke-width: 1.0; stroke-dasharray: 7.0,7.0;"/><polygon fill="#A80036" points="309.296,334.97,305.0273,326.0943,305.4856,331.7325,299.8474,332.1909,309.296,334.97" style="stroke: #A80036; stroke-width: 1.0;"/><text fill="#000000" font-family="sans-serif" font-size="13" lengthAdjust="spacingAndGlyphs" textLength="52" x="252" y="284.5684">分配内容</text><path d="M304.498,401.221 C280.02,420.729 249.377,446.831 225,473 C202.6,497.047 180.689,527.066 164.864,550.262 " fill="none" style="stroke: #A80036; stroke-width: 1.0; stroke-dasharray: 7.0,7.0;"/><polygon fill="#A80036" points="161.981,554.511,170.3434,549.3081,164.7877,550.3731,163.7227,544.8174,161.981,554.511" style="stroke: #A80036; stroke-width: 1.0;"/><text fill="#000000" font-family="sans-serif" font-size="13" lengthAdjust="spacingAndGlyphs" textLength="52" x="251" y="461.5684">注册资源</text><path d="M931,196.326 C931,215.116 931,290.681 931,334.711 " fill="none" style="stroke: #A80036; stroke-width: 1.0;"/><path d="M674.839,195.984 C670.169,212.01 652.38,273.048 639.383,317.647 " fill="none" style="stroke: #A80036; stroke-width: 1.0;"/><path d="M347,196.326 C347,215.116 347,290.681 347,334.711 " fill="none" style="stroke: #A80036; stroke-width: 1.0;"/><path d="M917.704,420.76 C905.053,470.007 886.812,541.019 878.902,571.809 " fill="none" style="stroke: #A80036; stroke-width: 1.0;"/><polygon fill="none" points="910.981,418.796,922.737,401.167,924.541,422.279,910.981,418.796" style="stroke: #A80036; stroke-width: 1.0;"/><path d="M635.775,438.087 C639.632,462.819 643.986,490.732 647.872,515.652 " fill="none" style="stroke: #A80036; stroke-width: 1.0;"/><polygon fill="none" points="628.838,439.035,632.673,418.195,642.671,436.878,628.838,439.035" style="stroke: #A80036; stroke-width: 1.0;"/><path d="M352.997,421.297 C357.759,462.817 364.265,519.549 368.296,554.701 " fill="none" style="stroke: #A80036; stroke-width: 1.0;"/><polygon fill="none" points="346.013,421.834,350.689,401.167,359.922,420.239,346.013,421.834" style="stroke: #A80036; stroke-width: 1.0;"/><path d="M659,680.612 C659,702.9585 659,724.3397 659,737.9931 " fill="none" style="stroke: #A80036; stroke-width: 1.0;"/><polygon fill="none" points="652,680.456,659,660.456,666,680.456,652,680.456" style="stroke: #A80036; stroke-width: 1.0;"/><path d="M372,641.155 C372,667.298 372,698.1271 372,720.7907 " fill="none" style="stroke: #A80036; stroke-width: 1.0;"/><polygon fill="none" points="365,641.01,372,621.01,379,641.01,365,641.01" style="stroke: #A80036; stroke-width: 1.0;"/></g></svg>