<?xml version="1.0" encoding="UTF-8" standalone="yes"?><svg xmlns="http://www.w3.org/2000/svg" xmlns:xlink="http://www.w3.org/1999/xlink" height="315pt" style="width:188px;height:315px;" version="1.1" viewBox="0 0 188 315" width="188pt"><defs><filter height="300%" id="f1" width="300%" x="-1" y="-1"><feGaussianBlur result="blurOut" stdDeviation="2.0"/><feColorMatrix in="blurOut" result="blurOut2" type="matrix" values="0 0 0 0 0 0 0 0 0 0 0 0 0 0 0 0 0 0 .4 0"/><feOffset dx="4.0" dy="4.0" in="blurOut2" result="blurOut3"/><feBlend in="SourceGraphic" in2="blurOut3" mode="normal"/></filter></defs><g><ellipse cx="98.2127" cy="18" fill="#000000" filter="url(#f1)" rx="10" ry="10" style="stroke: none; stroke-width: 1.0;"/><rect fill="#FEFECE" filter="url(#f1)" height="34.1328" rx="12.5" ry="12.5" style="stroke: #A80036; stroke-width: 1.5;" width="163" x="16.7127" y="68"/><text fill="#000000" font-family="sans-serif" font-size="12" lengthAdjust="spacingAndGlyphs" textLength="143" x="26.7127" y="89.6016">RemoteItemI::sendData()</text><rect fill="#FEFECE" filter="url(#f1)" height="34.1328" rx="12.5" ry="12.5" style="stroke: #A80036; stroke-width: 1.5;" width="101" x="47.7127" y="142"/><text fill="#000000" font-family="sans-serif" font-size="12" lengthAdjust="spacingAndGlyphs" textLength="81" x="57.7127" y="163.6016">__tryConnect()</text><polygon fill="#FEFECE" filter="url(#f1)" points="98.2127,216,110.2127,228,98.2127,240,86.2127,228,98.2127,216" style="stroke: #A80036; stroke-width: 1.5;"/><polygon fill="#FEFECE" filter="url(#f1)" points="77.2127,280,89.2127,292,77.2127,304,65.2127,292,77.2127,280" style="stroke: #A80036; stroke-width: 1.5;"/><ellipse cx="119.213" cy="292" fill="none" filter="url(#f1)" rx="10" ry="10" style="stroke: #000000; stroke-width: 1.0;"/><ellipse cx="119.713" cy="292.5" fill="#000000" rx="6" ry="6" style="stroke: none; stroke-width: 1.0;"/><path d="M98.2127,28.038 C98.2127,36.932 98.2127,50.844 98.2127,62.572 " fill="none" style="stroke: #A80036; stroke-width: 1.0;"/><polygon fill="#A80036" points="98.2127,67.781,102.2127,58.781,98.2127,62.781,94.2127,58.781,98.2127,67.781" style="stroke: #A80036; stroke-width: 1.0;"/><path d="M98.2127,102.338 C98.2127,112.464 98.2127,125.584 98.2127,136.543 " fill="none" style="stroke: #A80036; stroke-width: 1.0;"/><polygon fill="#A80036" points="98.2127,141.727,102.2127,132.727,98.2127,136.727,94.2127,132.727,98.2127,141.727" style="stroke: #A80036; stroke-width: 1.0;"/><path d="M98.2127,176.219 C98.2127,186.64 98.2127,200.134 98.2127,210.5927 " fill="none" style="stroke: #A80036; stroke-width: 1.0;"/><polygon fill="#A80036" points="98.2127,215.7527,102.2127,206.7527,98.2127,210.7527,94.2127,206.7527,98.2127,215.7527" style="stroke: #A80036; stroke-width: 1.0;"/><text fill="#000000" font-family="sans-serif" font-size="13" lengthAdjust="spacingAndGlyphs" textLength="88" x="-7.9373" y="205.2398">_isLocalClient</text><path d="M95.3806,237.3616 C91.854,247.7734 85.79,265.6767 81.6456,277.9124 " fill="none" style="stroke: #A80036; stroke-width: 1.0;"/><polygon fill="#A80036" points="80,282.7709,86.676,275.53,81.6041,278.0352,79.0989,272.9634,80,282.7709" style="stroke: #A80036; stroke-width: 1.0;"/><text fill="#000000" font-family="sans-serif" font-size="13" lengthAdjust="spacingAndGlyphs" textLength="74" x="-16.6659" y="269.3591">_remoteP2p</text><path d="M101.0449,237.3616 C104.5323,247.6577 110.501,265.2797 114.641,277.5024 " fill="none" style="stroke: #A80036; stroke-width: 1.0;"/><polygon fill="#A80036" points="116.291,282.3731,117.1921,272.5656,114.6869,277.6374,109.615,275.1322,116.291,282.3731" style="stroke: #A80036; stroke-width: 1.0;"/></g></svg>