<?xml version="1.0" encoding="UTF-8" standalone="yes"?><svg xmlns="http://www.w3.org/2000/svg" xmlns:xlink="http://www.w3.org/1999/xlink" height="1462pt" style="width:2158px;height:1462px;" version="1.1" viewBox="0 0 2158 1462" width="2158pt"><defs><filter height="300%" id="f1" width="300%" x="-1" y="-1"><feGaussianBlur result="blurOut" stdDeviation="2.0"/><feColorMatrix in="blurOut" result="blurOut2" type="matrix" values="0 0 0 0 0 0 0 0 0 0 0 0 0 0 0 0 0 0 .4 0"/><feOffset dx="4.0" dy="4.0" in="blurOut2" result="blurOut3"/><feBlend in="SourceGraphic" in2="blurOut3" mode="normal"/></filter><linearGradient id="gr0" x1="50%" x2="50%" y1="0%" y2="100%"><stop offset="0%" stop-color="#FF0000"/><stop offset="100%" stop-color="#008000"/></linearGradient></defs><g><rect fill="#FFFFFF" filter="url(#f1)" height="149" style="stroke: #000000; stroke-width: 2.0;" width="472" x="307.5" y="16"/><path d="M387.5,17 L387.5,25.4883 L377.5,35.4883 L307.5,35.4883 " fill="#FFFFFF" style="stroke: #000000; stroke-width: 2.0;"/><text fill="#000000" font-family="sans-serif" font-size="14" font-weight="bold" lengthAdjust="spacingAndGlyphs" textLength="70" x="310.5" y="29.5352">网络基接口</text><rect fill="#FFFFFF" filter="url(#f1)" height="240" style="stroke: #000000; stroke-width: 2.0;" width="466" x="310.5" y="196"/><path d="M396.5,197 L396.5,205.4883 L386.5,215.4883 L310.5,215.4883 " fill="#FFFFFF" style="stroke: #000000; stroke-width: 2.0;"/><text fill="#000000" font-family="sans-serif" font-size="14" font-weight="bold" lengthAdjust="spacingAndGlyphs" textLength="76" x="313.5" y="209.5352">Router接口</text><rect fill="#FEFECE" filter="url(#f1)" height="72.1758" style="stroke: #A80036; stroke-width: 1.5;" width="138" x="474.5" y="72"/><ellipse cx="495.8" cy="91.1328" fill="#B4A7E5" rx="11" ry="11" style="stroke: #A80036; stroke-width: 1.0;"/><path d="M491.7277,86.8979 L491.7277,84.7397 L499.1071,84.7397 L499.1071,86.8979 L496.6418,86.8979 L496.6418,94.9746 L499.1071,94.9746 L499.1071,97.1328 L491.7277,97.1328 L491.7277,94.9746 L494.1931,94.9746 L494.1931,86.8979 Z "/><text fill="#000000" font-family="sans-serif" font-size="12" font-style="italic" lengthAdjust="spacingAndGlyphs" textLength="96" x="509.2" y="88.6016">&lt;&lt; 网络接口 &gt;&gt;</text><text fill="#000000" font-family="sans-serif" font-size="12" font-style="italic" lengthAdjust="spacingAndGlyphs" textLength="55" x="529.7" y="102.7344">NetDriver</text><line style="stroke: #A80036; stroke-width: 1.5;" x1="475.5" x2="611.5" y1="110.2656" y2="110.2656"/><ellipse cx="485.5" cy="122.2432" fill="#84BE84" rx="3" ry="3" style="stroke: #038048; stroke-width: 1.0;"/><text fill="#000000" font-family="sans-serif" font-size="11" lengthAdjust="spacingAndGlyphs" textLength="98" x="494.5" y="124.9004">NetSender listen();</text><ellipse cx="485.5" cy="135.1982" fill="#84BE84" rx="3" ry="3" style="stroke: #038048; stroke-width: 1.0;"/><text fill="#000000" font-family="sans-serif" font-size="11" lengthAdjust="spacingAndGlyphs" textLength="112" x="494.5" y="137.8555">NetSender connect();</text><rect fill="#FEFECE" filter="url(#f1)" height="59.2207" style="stroke: #A80036; stroke-width: 1.5;" width="124" x="647.5" y="78.5"/><ellipse cx="662.5" cy="97.6328" fill="#B4A7E5" rx="11" ry="11" style="stroke: #A80036; stroke-width: 1.0;"/><path d="M658.4277,93.3979 L658.4277,91.2397 L665.8071,91.2397 L665.8071,93.3979 L663.3418,93.3979 L663.3418,101.4746 L665.8071,101.4746 L665.8071,103.6328 L658.4277,103.6328 L658.4277,101.4746 L660.8931,101.4746 L660.8931,93.3979 Z "/><text fill="#000000" font-family="sans-serif" font-size="12" font-style="italic" lengthAdjust="spacingAndGlyphs" textLength="96" x="674.5" y="95.1016">&lt;&lt; 发送接口 &gt;&gt;</text><text fill="#000000" font-family="sans-serif" font-size="12" font-style="italic" lengthAdjust="spacingAndGlyphs" textLength="60" x="692.5" y="109.2344">NetSender</text><line style="stroke: #A80036; stroke-width: 1.5;" x1="648.5" x2="770.5" y1="116.7656" y2="116.7656"/><ellipse cx="658.5" cy="128.7432" fill="#84BE84" rx="3" ry="3" style="stroke: #038048; stroke-width: 1.0;"/><text fill="#000000" font-family="sans-serif" font-size="11" lengthAdjust="spacingAndGlyphs" textLength="37" x="667.5" y="131.4004">send();</text><rect fill="#FEFECE" filter="url(#f1)" height="98.0859" style="stroke: #A80036; stroke-width: 1.5;" width="124" x="315.5" y="59"/><ellipse cx="330.5" cy="78.1328" fill="#A9DCDF" rx="11" ry="11" style="stroke: #A80036; stroke-width: 1.0;"/><path d="M330.6133,73.481 L329.4595,78.5527 L331.7754,78.5527 Z M329.1191,71.2397 L332.1157,71.2397 L335.4609,83.6328 L333.0122,83.6328 L332.2485,80.5698 L328.9697,80.5698 L328.2227,83.6328 L325.7739,83.6328 Z "/><text fill="#000000" font-family="sans-serif" font-size="12" font-style="italic" lengthAdjust="spacingAndGlyphs" textLength="96" x="342.5" y="75.6016">&lt;&lt; 接收回调 &gt;&gt;</text><text fill="#000000" font-family="sans-serif" font-size="12" font-style="italic" lengthAdjust="spacingAndGlyphs" textLength="69" x="356" y="89.7344">NetReceiver</text><line style="stroke: #A80036; stroke-width: 1.5;" x1="316.5" x2="438.5" y1="97.2656" y2="97.2656"/><ellipse cx="326.5" cy="109.2432" fill="#84BE84" rx="3" ry="3" style="stroke: #038048; stroke-width: 1.0;"/><text fill="#000000" font-family="sans-serif" font-size="11" lengthAdjust="spacingAndGlyphs" textLength="50" x="335.5" y="111.9004">recv()=0;</text><ellipse cx="326.5" cy="122.1982" fill="#84BE84" rx="3" ry="3" style="stroke: #038048; stroke-width: 1.0;"/><text fill="#000000" font-family="sans-serif" font-size="11" font-style="italic" lengthAdjust="spacingAndGlyphs" textLength="86" x="335.5" y="124.8555">onConnReady();</text><ellipse cx="326.5" cy="135.1533" fill="#84BE84" rx="3" ry="3" style="stroke: #038048; stroke-width: 1.0;"/><text fill="#000000" font-family="sans-serif" font-size="11" font-style="italic" lengthAdjust="spacingAndGlyphs" textLength="83" x="335.5" y="137.8105">onSendReady();</text><ellipse cx="326.5" cy="148.1084" fill="#84BE84" rx="3" ry="3" style="stroke: #038048; stroke-width: 1.0;"/><text fill="#000000" font-family="sans-serif" font-size="11" font-style="italic" lengthAdjust="spacingAndGlyphs" textLength="84" x="335.5" y="150.7656">onConnClose();</text><rect fill="#FEFECE" filter="url(#f1)" height="72.1758" style="stroke: #A80036; stroke-width: 1.5;" width="116" x="652.5" y="297.5"/><ellipse cx="667.5" cy="316.6328" fill="#B4A7E5" rx="11" ry="11" style="stroke: #A80036; stroke-width: 1.0;"/><path d="M663.4277,312.3979 L663.4277,310.2397 L670.8071,310.2397 L670.8071,312.3979 L668.3418,312.3979 L668.3418,320.4746 L670.8071,320.4746 L670.8071,322.6328 L663.4277,322.6328 L663.4277,320.4746 L665.8931,320.4746 L665.8931,312.3979 Z "/><text fill="#000000" font-family="sans-serif" font-size="12" font-style="italic" lengthAdjust="spacingAndGlyphs" textLength="88" x="679.5" y="314.1016">&lt;&lt;集群接口&gt;&gt;</text><text fill="#000000" font-family="sans-serif" font-size="12" font-style="italic" lengthAdjust="spacingAndGlyphs" textLength="69" x="689" y="328.2344">RouterNode</text><line style="stroke: #A80036; stroke-width: 1.5;" x1="653.5" x2="767.5" y1="335.7656" y2="335.7656"/><ellipse cx="663.5" cy="347.7432" fill="#84BE84" rx="3" ry="3" style="stroke: #038048; stroke-width: 1.0;"/><text fill="#000000" font-family="sans-serif" font-size="11" lengthAdjust="spacingAndGlyphs" text-decoration="underline" textLength="44" x="672.5" y="350.4004">create();</text><line style="stroke: #000000; stroke-width: 1.0;" x1="672.5" x2="716.5" y1="352.4004" y2="352.4004"/><ellipse cx="663.5" cy="360.6982" fill="#84BE84" rx="3" ry="3" style="stroke: #038048; stroke-width: 1.0;"/><text fill="#000000" font-family="sans-serif" font-size="11" lengthAdjust="spacingAndGlyphs" textLength="63" x="672.5" y="363.3555">bool start();</text><rect fill="#FEFECE" filter="url(#f1)" height="188.7715" style="stroke: #A80036; stroke-width: 1.5;" width="147" x="470" y="239"/><ellipse cx="498.95" cy="258.1328" fill="#B4A7E5" rx="11" ry="11" style="stroke: #A80036; stroke-width: 1.0;"/><path d="M494.8777,253.8979 L494.8777,251.7397 L502.2571,251.7397 L502.2571,253.8979 L499.7918,253.8979 L499.7918,261.9746 L502.2571,261.9746 L502.2571,264.1328 L494.8777,264.1328 L494.8777,261.9746 L497.3431,261.9746 L497.3431,253.8979 Z "/><text fill="#000000" font-family="sans-serif" font-size="12" font-style="italic" lengthAdjust="spacingAndGlyphs" textLength="88" x="514.05" y="255.6016">&lt;&lt;终端接口&gt;&gt;</text><text fill="#000000" font-family="sans-serif" font-size="12" font-style="italic" lengthAdjust="spacingAndGlyphs" textLength="70" x="523.05" y="269.7344">RouterClient</text><line style="stroke: #A80036; stroke-width: 1.5;" x1="471" x2="616" y1="277.2656" y2="277.2656"/><ellipse cx="481" cy="289.2432" fill="#84BE84" rx="3" ry="3" style="stroke: #038048; stroke-width: 1.0;"/><text fill="#000000" font-family="sans-serif" font-size="11" lengthAdjust="spacingAndGlyphs" text-decoration="underline" textLength="44" x="490" y="291.9004">create();</text><line style="stroke: #000000; stroke-width: 1.0;" x1="490" x2="534" y1="293.9004" y2="293.9004"/><ellipse cx="481" cy="302.1982" fill="#84BE84" rx="3" ry="3" style="stroke: #038048; stroke-width: 1.0;"/><text fill="#000000" font-family="sans-serif" font-size="11" lengthAdjust="spacingAndGlyphs" textLength="63" x="490" y="304.8555">bool start();</text><ellipse cx="481" cy="315.1533" fill="#84BE84" rx="3" ry="3" style="stroke: #038048; stroke-width: 1.0;"/><text fill="#000000" font-family="sans-serif" font-size="11" lengthAdjust="spacingAndGlyphs" textLength="121" x="490" y="317.8105">bool startCompleted();</text><ellipse cx="481" cy="328.1084" fill="#84BE84" rx="3" ry="3" style="stroke: #038048; stroke-width: 1.0;"/><text fill="#000000" font-family="sans-serif" font-size="11" lengthAdjust="spacingAndGlyphs" textLength="117" x="490" y="330.7656">Stream saveConfigs();</text><ellipse cx="481" cy="341.0635" fill="#84BE84" rx="3" ry="3" style="stroke: #038048; stroke-width: 1.0;"/><text fill="#000000" font-family="sans-serif" font-size="11" lengthAdjust="spacingAndGlyphs" textLength="99" x="490" y="343.7207">void setLocation();</text><ellipse cx="481" cy="354.0186" fill="#84BE84" rx="3" ry="3" style="stroke: #038048; stroke-width: 1.0;"/><text fill="#000000" font-family="sans-serif" font-size="11" lengthAdjust="spacingAndGlyphs" textLength="104" x="490" y="356.6758">void setDomainId();</text><ellipse cx="481" cy="366.9736" fill="#84BE84" rx="3" ry="3" style="stroke: #038048; stroke-width: 1.0;"/><text fill="#000000" font-family="sans-serif" font-size="11" lengthAdjust="spacingAndGlyphs" textLength="117" x="490" y="369.6309">void setBackground();</text><ellipse cx="481" cy="379.9287" fill="#84BE84" rx="3" ry="3" style="stroke: #038048; stroke-width: 1.0;"/><text fill="#000000" font-family="sans-serif" font-size="11" lengthAdjust="spacingAndGlyphs" textLength="76" x="490" y="382.5859">void refresh();</text><ellipse cx="481" cy="392.8838" fill="#84BE84" rx="3" ry="3" style="stroke: #038048; stroke-width: 1.0;"/><text fill="#000000" font-family="sans-serif" font-size="11" lengthAdjust="spacingAndGlyphs" textLength="111" x="490" y="395.541">String getStatistics();</text><ellipse cx="481" cy="405.8389" fill="#84BE84" rx="3" ry="3" style="stroke: #038048; stroke-width: 1.0;"/><text fill="#000000" font-family="sans-serif" font-size="11" lengthAdjust="spacingAndGlyphs" textLength="108" x="490" y="408.4961">void getPortStates();</text><ellipse cx="481" cy="418.7939" fill="#84BE84" rx="3" ry="3" style="stroke: #038048; stroke-width: 1.0;"/><text fill="#000000" font-family="sans-serif" font-size="11" lengthAdjust="spacingAndGlyphs" textLength="121" x="490" y="421.4512">void getPathQualitys();</text><rect fill="#FEFECE" filter="url(#f1)" height="72.1758" style="stroke: #A80036; stroke-width: 1.5;" width="116" x="318.5" y="297.5"/><ellipse cx="333.5" cy="316.6328" fill="#B4A7E5" rx="11" ry="11" style="stroke: #A80036; stroke-width: 1.0;"/><path d="M329.4277,312.3979 L329.4277,310.2397 L336.8071,310.2397 L336.8071,312.3979 L334.3418,312.3979 L334.3418,320.4746 L336.8071,320.4746 L336.8071,322.6328 L329.4277,322.6328 L329.4277,320.4746 L331.8931,320.4746 L331.8931,312.3979 Z "/><text fill="#000000" font-family="sans-serif" font-size="12" font-style="italic" lengthAdjust="spacingAndGlyphs" textLength="88" x="345.5" y="314.1016">&lt;&lt;服务接口&gt;&gt;</text><text fill="#000000" font-family="sans-serif" font-size="12" font-style="italic" lengthAdjust="spacingAndGlyphs" textLength="71" x="354" y="328.2344">RouterAgent</text><line style="stroke: #A80036; stroke-width: 1.5;" x1="319.5" x2="433.5" y1="335.7656" y2="335.7656"/><ellipse cx="329.5" cy="347.7432" fill="#84BE84" rx="3" ry="3" style="stroke: #038048; stroke-width: 1.0;"/><text fill="#000000" font-family="sans-serif" font-size="11" lengthAdjust="spacingAndGlyphs" text-decoration="underline" textLength="44" x="338.5" y="350.4004">create();</text><line style="stroke: #000000; stroke-width: 1.0;" x1="338.5" x2="382.5" y1="352.4004" y2="352.4004"/><ellipse cx="329.5" cy="360.6982" fill="#84BE84" rx="3" ry="3" style="stroke: #038048; stroke-width: 1.0;"/><text fill="#000000" font-family="sans-serif" font-size="11" lengthAdjust="spacingAndGlyphs" textLength="63" x="338.5" y="363.3555">bool start();</text><rect fill="#FEFECE" filter="url(#f1)" height="99.8203" style="stroke: #A80036; stroke-width: 1.5;" width="209" x="804" y="283.5"/><ellipse cx="868.75" cy="299.5" fill="#ADD1B2" rx="11" ry="11" style="stroke: #A80036; stroke-width: 1.0;"/><path d="M871.7231,305.1431 Q871.1421,305.4419 870.5029,305.5913 Q869.8638,305.7407 869.1582,305.7407 Q866.6514,305.7407 865.3315,304.0889 Q864.0117,302.437 864.0117,299.3159 Q864.0117,296.1865 865.3315,294.5347 Q866.6514,292.8828 869.1582,292.8828 Q869.8638,292.8828 870.5112,293.0322 Q871.1587,293.1816 871.7231,293.4805 L871.7231,296.2031 Q871.0923,295.6221 870.4988,295.3523 Q869.9053,295.0825 869.2744,295.0825 Q867.9297,295.0825 867.2449,296.1492 Q866.5601,297.2158 866.5601,299.3159 Q866.5601,301.4077 867.2449,302.4744 Q867.9297,303.541 869.2744,303.541 Q869.9053,303.541 870.4988,303.2712 Q871.0923,303.0015 871.7231,302.4204 Z "/><text fill="#000000" font-family="sans-serif" font-size="12" lengthAdjust="spacingAndGlyphs" textLength="71" x="889.25" y="304.0352">NetArcConnI</text><line style="stroke: #A80036; stroke-width: 1.5;" x1="805" x2="1012" y1="315.5" y2="315.5"/><rect fill="none" height="6" style="stroke: #C82930; stroke-width: 1.0;" width="6" x="812" y="324.4775"/><text fill="#000000" font-family="sans-serif" font-size="11" lengthAdjust="spacingAndGlyphs" textLength="118" x="824" y="330.1348">NetReceiver _receiver;</text><ellipse cx="815" cy="340.4326" fill="none" rx="3" ry="3" style="stroke: #038048; stroke-width: 1.0;"/><text fill="#000000" font-family="sans-serif" font-size="11" lengthAdjust="spacingAndGlyphs" textLength="113" x="824" y="343.0898">NetArcListenI _listen;</text><line style="stroke: #A80036; stroke-width: 1.5;" x1="805" x2="1012" y1="349.4102" y2="349.4102"/><ellipse cx="815" cy="361.3877" fill="#84BE84" rx="3" ry="3" style="stroke: #038048; stroke-width: 1.0;"/><text fill="#000000" font-family="sans-serif" font-size="11" lengthAdjust="spacingAndGlyphs" textLength="183" x="824" y="364.0449">send(){_listen._driver.onSendTo()}</text><ellipse cx="815" cy="374.3428" fill="#84BE84" rx="3" ry="3" style="stroke: #038048; stroke-width: 1.0;"/><text fill="#000000" font-family="sans-serif" font-size="11" lengthAdjust="spacingAndGlyphs" textLength="146" x="824" y="377">recvData(){_receiver.recv()}</text><rect fill="#FEFECE" filter="url(#f1)" height="52.9551" style="stroke: #A80036; stroke-width: 1.5;" width="143" x="975" y="541.5"/><ellipse cx="1006.2" cy="557.5" fill="#ADD1B2" rx="11" ry="11" style="stroke: #A80036; stroke-width: 1.0;"/><path d="M1009.1731,563.1431 Q1008.5921,563.4419 1007.9529,563.5913 Q1007.3138,563.7407 1006.6082,563.7407 Q1004.1014,563.7407 1002.7815,562.0889 Q1001.4617,560.437 1001.4617,557.3159 Q1001.4617,554.1865 1002.7815,552.5347 Q1004.1014,550.8828 1006.6082,550.8828 Q1007.3138,550.8828 1007.9612,551.0322 Q1008.6087,551.1816 1009.1731,551.4805 L1009.1731,554.2031 Q1008.5423,553.6221 1007.9488,553.3523 Q1007.3553,553.0825 1006.7244,553.0825 Q1005.3797,553.0825 1004.6949,554.1492 Q1004.0101,555.2158 1004.0101,557.3159 Q1004.0101,559.4077 1004.6949,560.4744 Q1005.3797,561.541 1006.7244,561.541 Q1007.3553,561.541 1007.9488,561.2712 Q1008.5423,561.0015 1009.1731,560.4204 Z "/><text fill="#000000" font-family="sans-serif" font-size="12" lengthAdjust="spacingAndGlyphs" textLength="75" x="1023.8" y="562.0352">NetArcListenI</text><line style="stroke: #A80036; stroke-width: 1.5;" x1="976" x2="1117" y1="573.5" y2="573.5"/><rect fill="none" height="6" style="stroke: #C82930; stroke-width: 1.0;" width="6" x="983" y="582.4775"/><text fill="#000000" font-family="sans-serif" font-size="11" lengthAdjust="spacingAndGlyphs" textLength="117" x="995" y="588.1348">NetArcDriverI _driver;</text><polygon fill="#FBFB77" filter="url(#f1)" points="806.5,80,806.5,135.9316,1028.5,135.9316,1028.5,90,1018.5,80,806.5,80" style="stroke: #A80036; stroke-width: 1.0;"/><polygon fill="#FBFB77" points="806.5,80,806.5,135.9316,912.396,135.9316,910.486,283.19,920.396,135.9316,1028.5,135.9316,1028.5,90,1018.5,80,806.5,80" style="stroke: #A80036; stroke-width: 1.0;"/><line style="stroke: #A80036; stroke-width: 1.0;" x1="1018.5" x2="1018.5" y1="80" y2="90"/><line style="stroke: #A80036; stroke-width: 1.0;" x1="1028.5" x2="1018.5" y1="90" y2="90"/><text fill="#000000" font-family="sans-serif" font-size="13" lengthAdjust="spacingAndGlyphs" textLength="181" x="812.5" y="97.5684">- AgentItemI::onPathRecvPkt</text><text fill="#000000" font-family="sans-serif" font-size="13" lengthAdjust="spacingAndGlyphs" textLength="201" x="812.5" y="112.8789">- RouterClientI::onPortRecvData</text><text fill="#000000" font-family="sans-serif" font-size="13" lengthAdjust="spacingAndGlyphs" textLength="197" x="812.5" y="128.1895">- RouterNodeI::onPortRecvData</text><rect fill="url(#gr0)" filter="url(#f1)" height="112.7754" style="stroke: #A80036; stroke-width: 1.5;" width="215" x="844" y="1341"/><ellipse cx="914.25" cy="1357" fill="#ADD1B2" rx="11" ry="11" style="stroke: #A80036; stroke-width: 1.0;"/><path d="M917.2231,1362.6431 Q916.6421,1362.9419 916.0029,1363.0913 Q915.3638,1363.2407 914.6582,1363.2407 Q912.1514,1363.2407 910.8315,1361.5889 Q909.5117,1359.937 909.5117,1356.8159 Q909.5117,1353.6865 910.8315,1352.0347 Q912.1514,1350.3828 914.6582,1350.3828 Q915.3638,1350.3828 916.0112,1350.5322 Q916.6587,1350.6816 917.2231,1350.9805 L917.2231,1353.7031 Q916.5923,1353.1221 915.9988,1352.8523 Q915.4053,1352.5825 914.7744,1352.5825 Q913.4297,1352.5825 912.7449,1353.6492 Q912.0601,1354.7158 912.0601,1356.8159 Q912.0601,1358.9077 912.7449,1359.9744 Q913.4297,1361.041 914.7744,1361.041 Q915.4053,1361.041 915.9988,1360.7712 Q916.5923,1360.5015 917.2231,1359.9204 Z "/><text fill="#000000" font-family="sans-serif" font-size="12" lengthAdjust="spacingAndGlyphs" textLength="66" x="934.75" y="1361.5352">RouterPathI</text><line style="stroke: #A80036; stroke-width: 1.5;" x1="845" x2="1058" y1="1373" y2="1373"/><rect fill="none" height="6" style="stroke: #C82930; stroke-width: 1.0;" width="6" x="852" y="1381.9775"/><text fill="#000000" font-family="sans-serif" font-size="11" lengthAdjust="spacingAndGlyphs" textLength="121" x="864" y="1387.6348">NetSender _netSender;</text><line style="stroke: #A80036; stroke-width: 1.5;" x1="845" x2="1058" y1="1393.9551" y2="1393.9551"/><ellipse cx="855" cy="1405.9326" fill="#84BE84" rx="3" ry="3" style="stroke: #038048; stroke-width: 1.0;"/><text fill="#000000" font-family="sans-serif" font-size="11" lengthAdjust="spacingAndGlyphs" textLength="137" x="864" y="1408.5898">setNetSender(NetSender);</text><ellipse cx="855" cy="1418.8877" fill="#84BE84" rx="3" ry="3" style="stroke: #038048; stroke-width: 1.0;"/><text fill="#000000" font-family="sans-serif" font-size="11" lengthAdjust="spacingAndGlyphs" textLength="163" x="864" y="1421.5449">setPathReceiver(PathReceiver);</text><ellipse cx="855" cy="1431.8428" fill="#84BE84" rx="3" ry="3" style="stroke: #038048; stroke-width: 1.0;"/><text fill="#000000" font-family="sans-serif" font-size="11" lengthAdjust="spacingAndGlyphs" textLength="166" x="864" y="1434.5">pathSendPkt(){__sendOnePkt()}</text><rect fill="#F24D5C" height="6" style="stroke: #C82930; stroke-width: 1.0;" width="6" x="852" y="1441.7979"/><text fill="#000000" font-family="sans-serif" font-size="11" lengthAdjust="spacingAndGlyphs" textLength="189" x="864" y="1447.4551">__sendOnePkt(){_netSender.send()}</text><rect fill="#FEFECE" filter="url(#f1)" height="104.7754" style="stroke: #A80036; stroke-width: 1.5;" width="147" x="1277" y="1027"/><ellipse cx="1310.45" cy="1043" fill="#B4A7E5" rx="11" ry="11" style="stroke: #A80036; stroke-width: 1.0;"/><path d="M1306.3777,1038.7651 L1306.3777,1036.6069 L1313.7571,1036.6069 L1313.7571,1038.7651 L1311.2918,1038.7651 L1311.2918,1046.8418 L1313.7571,1046.8418 L1313.7571,1049 L1306.3777,1049 L1306.3777,1046.8418 L1308.8431,1046.8418 L1308.8431,1038.7651 Z "/><text fill="#000000" font-family="sans-serif" font-size="12" font-style="italic" lengthAdjust="spacingAndGlyphs" textLength="74" x="1328.55" y="1047.5352">PathReceiver</text><line style="stroke: #A80036; stroke-width: 1.5;" x1="1278" x2="1423" y1="1059" y2="1059"/><ellipse cx="1288" cy="1070.9775" fill="#84BE84" rx="3" ry="3" style="stroke: #038048; stroke-width: 1.0;"/><text fill="#000000" font-family="sans-serif" font-size="11" lengthAdjust="spacingAndGlyphs" textLength="81" x="1297" y="1073.6348">onPathActive();</text><ellipse cx="1288" cy="1083.9326" fill="#84BE84" rx="3" ry="3" style="stroke: #038048; stroke-width: 1.0;"/><text fill="#000000" font-family="sans-serif" font-size="11" lengthAdjust="spacingAndGlyphs" textLength="121" x="1297" y="1086.5898">onPathCostChanged();</text><ellipse cx="1288" cy="1096.8877" fill="#84BE84" rx="3" ry="3" style="stroke: #038048; stroke-width: 1.0;"/><text fill="#000000" font-family="sans-serif" font-size="11" lengthAdjust="spacingAndGlyphs" textLength="111" x="1297" y="1099.5449">onPathCheckClose();</text><ellipse cx="1288" cy="1109.8428" fill="#84BE84" rx="3" ry="3" style="stroke: #038048; stroke-width: 1.0;"/><text fill="#000000" font-family="sans-serif" font-size="11" lengthAdjust="spacingAndGlyphs" textLength="85" x="1297" y="1112.5">onPathClosed();</text><ellipse cx="1288" cy="1122.7979" fill="#84BE84" rx="3" ry="3" style="stroke: #038048; stroke-width: 1.0;"/><text fill="#000000" font-family="sans-serif" font-size="11" lengthAdjust="spacingAndGlyphs" textLength="89" x="1297" y="1125.4551">onPathRecvPkt();</text><rect fill="#FEFECE" filter="url(#f1)" height="91.8203" style="stroke: #A80036; stroke-width: 1.5;" width="120" x="707.5" y="1033.5"/><ellipse cx="737.35" cy="1049.5" fill="#B4A7E5" rx="11" ry="11" style="stroke: #A80036; stroke-width: 1.0;"/><path d="M733.2777,1045.2651 L733.2777,1043.1069 L740.6571,1043.1069 L740.6571,1045.2651 L738.1918,1045.2651 L738.1918,1053.3418 L740.6571,1053.3418 L740.6571,1055.5 L733.2777,1055.5 L733.2777,1053.3418 L735.7431,1053.3418 L735.7431,1045.2651 Z "/><text fill="#000000" font-family="sans-serif" font-size="12" font-style="italic" lengthAdjust="spacingAndGlyphs" textLength="55" x="754.65" y="1054.0352">P2pClient</text><line style="stroke: #A80036; stroke-width: 1.5;" x1="708.5" x2="826.5" y1="1065.5" y2="1065.5"/><ellipse cx="718.5" cy="1077.4775" fill="#84BE84" rx="3" ry="3" style="stroke: #038048; stroke-width: 1.0;"/><text fill="#000000" font-family="sans-serif" font-size="11" lengthAdjust="spacingAndGlyphs" text-decoration="underline" textLength="44" x="727.5" y="1080.1348">create();</text><line style="stroke: #000000; stroke-width: 1.0;" x1="727.5" x2="771.5" y1="1082.1348" y2="1082.1348"/><ellipse cx="718.5" cy="1090.4326" fill="#84BE84" rx="3" ry="3" style="stroke: #038048; stroke-width: 1.0;"/><text fill="#000000" font-family="sans-serif" font-size="11" lengthAdjust="spacingAndGlyphs" textLength="35" x="727.5" y="1093.0898">stop();</text><ellipse cx="718.5" cy="1103.3877" fill="#84BE84" rx="3" ry="3" style="stroke: #038048; stroke-width: 1.0;"/><text fill="#000000" font-family="sans-serif" font-size="11" lengthAdjust="spacingAndGlyphs" textLength="47" x="727.5" y="1106.0449">restart();</text><ellipse cx="718.5" cy="1116.3428" fill="#84BE84" rx="3" ry="3" style="stroke: #038048; stroke-width: 1.0;"/><text fill="#000000" font-family="sans-serif" font-size="11" lengthAdjust="spacingAndGlyphs" textLength="94" x="727.5" y="1119">String statistics();</text><rect fill="#FEFECE" filter="url(#f1)" height="32" style="stroke: #A80036; stroke-width: 1.5;" width="95" x="1224" y="1220.5"/><ellipse cx="1239" cy="1236.5" fill="#ADD1B2" rx="11" ry="11" style="stroke: #A80036; stroke-width: 1.0;"/><path d="M1241.9731,1242.1431 Q1241.3921,1242.4419 1240.7529,1242.5913 Q1240.1138,1242.7407 1239.4082,1242.7407 Q1236.9014,1242.7407 1235.5815,1241.0889 Q1234.2617,1239.437 1234.2617,1236.3159 Q1234.2617,1233.1865 1235.5815,1231.5347 Q1236.9014,1229.8828 1239.4082,1229.8828 Q1240.1138,1229.8828 1240.7612,1230.0322 Q1241.4087,1230.1816 1241.9731,1230.4805 L1241.9731,1233.2031 Q1241.3423,1232.6221 1240.7488,1232.3523 Q1240.1553,1232.0825 1239.5244,1232.0825 Q1238.1797,1232.0825 1237.4949,1233.1492 Q1236.8101,1234.2158 1236.8101,1236.3159 Q1236.8101,1238.4077 1237.4949,1239.4744 Q1238.1797,1240.541 1239.5244,1240.541 Q1240.1553,1240.541 1240.7488,1240.2712 Q1241.3423,1240.0015 1241.9731,1239.4204 Z "/><text fill="#000000" font-family="sans-serif" font-size="12" lengthAdjust="spacingAndGlyphs" textLength="63" x="1253" y="1241.0352">Connection</text><rect fill="#FEFECE" filter="url(#f1)" height="86.8652" style="stroke: #A80036; stroke-width: 1.5;" width="299" x="301" y="1036"/><ellipse cx="413.25" cy="1052" fill="#ADD1B2" rx="11" ry="11" style="stroke: #A80036; stroke-width: 1.0;"/><path d="M416.2231,1057.6431 Q415.6421,1057.9419 415.0029,1058.0913 Q414.3638,1058.2407 413.6582,1058.2407 Q411.1514,1058.2407 409.8315,1056.5889 Q408.5117,1054.937 408.5117,1051.8159 Q408.5117,1048.6865 409.8315,1047.0347 Q411.1514,1045.3828 413.6582,1045.3828 Q414.3638,1045.3828 415.0112,1045.5322 Q415.6587,1045.6816 416.2231,1045.9805 L416.2231,1048.7031 Q415.5923,1048.1221 414.9988,1047.8523 Q414.4053,1047.5825 413.7744,1047.5825 Q412.4297,1047.5825 411.7449,1048.6492 Q411.0601,1049.7158 411.0601,1051.8159 Q411.0601,1053.9077 411.7449,1054.9744 Q412.4297,1056.041 413.7744,1056.041 Q414.4053,1056.041 414.9988,1055.7712 Q415.5923,1055.5015 416.2231,1054.9204 Z "/><text fill="#000000" font-family="sans-serif" font-size="12" lengthAdjust="spacingAndGlyphs" textLength="66" x="433.75" y="1056.5352">RouterItemI</text><line style="stroke: #A80036; stroke-width: 1.5;" x1="302" x2="599" y1="1068" y2="1068"/><rect fill="none" height="6" style="stroke: #C82930; stroke-width: 1.0;" width="6" x="309" y="1076.9775"/><text fill="#000000" font-family="sans-serif" font-size="11" lengthAdjust="spacingAndGlyphs" textLength="205" x="321" y="1082.6348">RouterClientAgent _mainRouterAgent;</text><rect fill="none" height="6" style="stroke: #C82930; stroke-width: 1.0;" width="6" x="309" y="1089.9326"/><text fill="#000000" font-family="sans-serif" font-size="11" lengthAdjust="spacingAndGlyphs" textLength="142" x="321" y="1095.5898">ClientPathI _clientPaths[3];</text><line style="stroke: #A80036; stroke-width: 1.5;" x1="302" x2="599" y1="1101.9102" y2="1101.9102"/><ellipse cx="312" cy="1113.8877" fill="#84BE84" rx="3" ry="3" style="stroke: #038048; stroke-width: 1.0;"/><text fill="#000000" font-family="sans-serif" font-size="11" lengthAdjust="spacingAndGlyphs" textLength="273" x="321" y="1116.5449">sendData(){_clientPaths._routerPath.pathSendPkt()}</text><rect fill="#FEFECE" filter="url(#f1)" height="86.8652" style="stroke: #A80036; stroke-width: 1.5;" width="203" x="553" y="1193"/><ellipse cx="620.25" cy="1209" fill="#ADD1B2" rx="11" ry="11" style="stroke: #A80036; stroke-width: 1.0;"/><path d="M623.2231,1214.6431 Q622.6421,1214.9419 622.0029,1215.0913 Q621.3638,1215.2407 620.6582,1215.2407 Q618.1514,1215.2407 616.8315,1213.5889 Q615.5117,1211.937 615.5117,1208.8159 Q615.5117,1205.6865 616.8315,1204.0347 Q618.1514,1202.3828 620.6582,1202.3828 Q621.3638,1202.3828 622.0112,1202.5322 Q622.6587,1202.6816 623.2231,1202.9805 L623.2231,1205.7031 Q622.5923,1205.1221 621.9988,1204.8523 Q621.4053,1204.5825 620.7744,1204.5825 Q619.4297,1204.5825 618.7449,1205.6492 Q618.0601,1206.7158 618.0601,1208.8159 Q618.0601,1210.9077 618.7449,1211.9744 Q619.4297,1213.041 620.7744,1213.041 Q621.4053,1213.041 621.9988,1212.7712 Q622.5923,1212.5015 623.2231,1211.9204 Z "/><text fill="#000000" font-family="sans-serif" font-size="12" lengthAdjust="spacingAndGlyphs" textLength="60" x="640.75" y="1213.5352">ClientPathI</text><line style="stroke: #A80036; stroke-width: 1.5;" x1="554" x2="755" y1="1225" y2="1225"/><ellipse cx="564" cy="1236.9775" fill="none" rx="3" ry="3" style="stroke: #038048; stroke-width: 1.0;"/><text fill="#000000" font-family="sans-serif" font-size="11" lengthAdjust="spacingAndGlyphs" textLength="177" x="573" y="1239.6348">RouterClientAgent _routerAgent;</text><ellipse cx="564" cy="1249.9326" fill="none" rx="3" ry="3" style="stroke: #038048; stroke-width: 1.0;"/><text fill="#000000" font-family="sans-serif" font-size="11" lengthAdjust="spacingAndGlyphs" textLength="131" x="573" y="1252.5898">RouterPathI _routerPath;</text><line style="stroke: #A80036; stroke-width: 1.5;" x1="554" x2="755" y1="1258.9102" y2="1258.9102"/><ellipse cx="564" cy="1270.8877" fill="#84BE84" rx="3" ry="3" style="stroke: #038048; stroke-width: 1.0;"/><text fill="#000000" font-family="sans-serif" font-size="11" lengthAdjust="spacingAndGlyphs" textLength="145" x="573" y="1273.5449">connect(){new RouterPathI}</text><rect fill="#FEFECE" filter="url(#f1)" height="32" style="stroke: #A80036; stroke-width: 1.5;" width="135" x="383" y="1220.5"/><ellipse cx="398" cy="1236.5" fill="#B4A7E5" rx="11" ry="11" style="stroke: #A80036; stroke-width: 1.0;"/><path d="M393.9277,1232.2651 L393.9277,1230.1069 L401.3071,1230.1069 L401.3071,1232.2651 L398.8418,1232.2651 L398.8418,1240.3418 L401.3071,1240.3418 L401.3071,1242.5 L393.9277,1242.5 L393.9277,1240.3418 L396.3931,1240.3418 L396.3931,1232.2651 Z "/><text fill="#000000" font-family="sans-serif" font-size="12" font-style="italic" lengthAdjust="spacingAndGlyphs" textLength="103" x="412" y="1241.0352">RouterClientAgent</text><rect fill="#FEFECE" filter="url(#f1)" height="65.9102" style="stroke: #A80036; stroke-width: 1.5;" width="165" x="366" y="883"/><ellipse cx="409.8" cy="899" fill="#ADD1B2" rx="11" ry="11" style="stroke: #A80036; stroke-width: 1.0;"/><path d="M412.7731,904.6431 Q412.1921,904.9419 411.5529,905.0913 Q410.9138,905.2407 410.2082,905.2407 Q407.7014,905.2407 406.3815,903.5889 Q405.0617,901.937 405.0617,898.8159 Q405.0617,895.6865 406.3815,894.0347 Q407.7014,892.3828 410.2082,892.3828 Q410.9138,892.3828 411.5612,892.5322 Q412.2087,892.6816 412.7731,892.9805 L412.7731,895.7031 Q412.1423,895.1221 411.5488,894.8523 Q410.9553,894.5825 410.3244,894.5825 Q408.9797,894.5825 408.2949,895.6492 Q407.6101,896.7158 407.6101,898.8159 Q407.6101,900.9077 408.2949,901.9744 Q408.9797,903.041 410.3244,903.041 Q410.9553,903.041 411.5488,902.7712 Q412.1423,902.5015 412.7731,901.9204 Z "/><text fill="#000000" font-family="sans-serif" font-size="12" lengthAdjust="spacingAndGlyphs" textLength="69" x="430.2" y="903.5352">RemotePath</text><line style="stroke: #A80036; stroke-width: 1.5;" x1="367" x2="530" y1="915" y2="915"/><ellipse cx="377" cy="926.9775" fill="none" rx="3" ry="3" style="stroke: #038048; stroke-width: 1.0;"/><text fill="#000000" font-family="sans-serif" font-size="11" lengthAdjust="spacingAndGlyphs" textLength="139" x="386" y="929.6348">RemoteItemI _remoteItem;</text><ellipse cx="377" cy="939.9326" fill="none" rx="3" ry="3" style="stroke: #038048; stroke-width: 1.0;"/><text fill="#000000" font-family="sans-serif" font-size="11" lengthAdjust="spacingAndGlyphs" textLength="121" x="386" y="942.5898">RouterItemI _pathItem;</text><rect fill="#FEFECE" filter="url(#f1)" height="65.9102" style="stroke: #A80036; stroke-width: 1.5;" width="125" x="745" y="715.5"/><ellipse cx="770.8" cy="731.5" fill="#ADD1B2" rx="11" ry="11" style="stroke: #A80036; stroke-width: 1.0;"/><path d="M773.7731,737.1431 Q773.1921,737.4419 772.5529,737.5913 Q771.9138,737.7407 771.2082,737.7407 Q768.7014,737.7407 767.3815,736.0889 Q766.0617,734.437 766.0617,731.3159 Q766.0617,728.1865 767.3815,726.5347 Q768.7014,724.8828 771.2082,724.8828 Q771.9138,724.8828 772.5612,725.0322 Q773.2087,725.1816 773.7731,725.4805 L773.7731,728.2031 Q773.1423,727.6221 772.5488,727.3523 Q771.9553,727.0825 771.3244,727.0825 Q769.9797,727.0825 769.2949,728.1492 Q768.6101,729.2158 768.6101,731.3159 Q768.6101,733.4077 769.2949,734.4744 Q769.9797,735.541 771.3244,735.541 Q771.9553,735.541 772.5488,735.2712 Q773.1423,735.0015 773.7731,734.4204 Z "/><text fill="#000000" font-family="sans-serif" font-size="12" lengthAdjust="spacingAndGlyphs" textLength="69" x="787.2" y="736.0352">RemoteCost</text><line style="stroke: #A80036; stroke-width: 1.5;" x1="746" x2="869" y1="747.5" y2="747.5"/><ellipse cx="756" cy="759.4775" fill="none" rx="3" ry="3" style="stroke: #038048; stroke-width: 1.0;"/><text fill="#000000" font-family="sans-serif" font-size="11" lengthAdjust="spacingAndGlyphs" textLength="99" x="765" y="762.1348">RemotePath _path;</text><ellipse cx="756" cy="772.4326" fill="none" rx="3" ry="3" style="stroke: #038048; stroke-width: 1.0;"/><text fill="#000000" font-family="sans-serif" font-size="11" lengthAdjust="spacingAndGlyphs" textLength="49" x="765" y="775.0898">int _cost;</text><rect fill="#FEFECE" filter="url(#f1)" height="112.7754" style="stroke: #A80036; stroke-width: 1.5;" width="309" x="366" y="692"/><ellipse cx="480.25" cy="708" fill="#ADD1B2" rx="11" ry="11" style="stroke: #A80036; stroke-width: 1.0;"/><path d="M483.2231,713.6431 Q482.6421,713.9419 482.0029,714.0913 Q481.3638,714.2407 480.6582,714.2407 Q478.1514,714.2407 476.8315,712.5889 Q475.5117,710.937 475.5117,707.8159 Q475.5117,704.6865 476.8315,703.0347 Q478.1514,701.3828 480.6582,701.3828 Q481.3638,701.3828 482.0112,701.5322 Q482.6587,701.6816 483.2231,701.9805 L483.2231,704.7031 Q482.5923,704.1221 481.9988,703.8523 Q481.4053,703.5825 480.7744,703.5825 Q479.4297,703.5825 478.7449,704.6492 Q478.0601,705.7158 478.0601,707.8159 Q478.0601,709.9077 478.7449,710.9744 Q479.4297,712.041 480.7744,712.041 Q481.4053,712.041 481.9988,711.7712 Q482.5923,711.5015 483.2231,710.9204 Z "/><text fill="#000000" font-family="sans-serif" font-size="12" lengthAdjust="spacingAndGlyphs" textLength="72" x="500.75" y="712.5352">RemoteItemI</text><line style="stroke: #A80036; stroke-width: 1.5;" x1="367" x2="674" y1="724" y2="724"/><rect fill="none" height="6" style="stroke: #C82930; stroke-width: 1.0;" width="6" x="374" y="732.9775"/><text fill="#000000" font-family="sans-serif" font-size="11" lengthAdjust="spacingAndGlyphs" textLength="180" x="386" y="738.6348">map&lt;RemotePath&gt; _remotePaths</text><rect fill="none" height="6" style="stroke: #C82930; stroke-width: 1.0;" width="6" x="374" y="745.9326"/><text fill="#000000" font-family="sans-serif" font-size="11" lengthAdjust="spacingAndGlyphs" textLength="171" x="386" y="751.5898">set&lt;RemoteCost&gt; _pathArrays;</text><rect fill="none" height="6" style="stroke: #C82930; stroke-width: 1.0;" width="6" x="374" y="758.8877"/><text fill="#000000" font-family="sans-serif" font-size="11" lengthAdjust="spacingAndGlyphs" textLength="130" x="386" y="764.5449">RemoteP2pI _remoteP2p</text><line style="stroke: #A80036; stroke-width: 1.5;" x1="367" x2="674" y1="770.8652" y2="770.8652"/><rect fill="#F24D5C" height="6" style="stroke: #C82930; stroke-width: 1.0;" width="6" x="374" y="779.8428"/><text fill="#000000" font-family="sans-serif" font-size="11" lengthAdjust="spacingAndGlyphs" textLength="154" x="386" y="785.5">RouterItemI __getSendPath();</text><ellipse cx="377" cy="795.7979" fill="#84BE84" rx="3" ry="3" style="stroke: #038048; stroke-width: 1.0;"/><text fill="#000000" font-family="sans-serif" font-size="11" lengthAdjust="spacingAndGlyphs" textLength="283" x="386" y="798.4551">sendData(){__getSendPath()/_remoteP2p.sendData()}</text><rect fill="#FEFECE" filter="url(#f1)" height="86.8652" style="stroke: #A80036; stroke-width: 1.5;" width="232" x="691.5" y="872.5"/><ellipse cx="768.25" cy="888.5" fill="#ADD1B2" rx="11" ry="11" style="stroke: #A80036; stroke-width: 1.0;"/><path d="M771.2231,894.1431 Q770.6421,894.4419 770.0029,894.5913 Q769.3638,894.7407 768.6582,894.7407 Q766.1514,894.7407 764.8315,893.0889 Q763.5117,891.437 763.5117,888.3159 Q763.5117,885.1865 764.8315,883.5347 Q766.1514,881.8828 768.6582,881.8828 Q769.3638,881.8828 770.0112,882.0322 Q770.6587,882.1816 771.2231,882.4805 L771.2231,885.2031 Q770.5923,884.6221 769.9988,884.3523 Q769.4053,884.0825 768.7744,884.0825 Q767.4297,884.0825 766.7449,885.1492 Q766.0601,886.2158 766.0601,888.3159 Q766.0601,890.4077 766.7449,891.4744 Q767.4297,892.541 768.7744,892.541 Q769.4053,892.541 769.9988,892.2712 Q770.5923,892.0015 771.2231,891.4204 Z "/><text fill="#000000" font-family="sans-serif" font-size="12" lengthAdjust="spacingAndGlyphs" textLength="70" x="788.75" y="893.0352">RemoteP2pI</text><line style="stroke: #A80036; stroke-width: 1.5;" x1="692.5" x2="922.5" y1="904.5" y2="904.5"/><rect fill="none" height="6" style="stroke: #C82930; stroke-width: 1.0;" width="6" x="699.5" y="913.4775"/><text fill="#000000" font-family="sans-serif" font-size="11" lengthAdjust="spacingAndGlyphs" textLength="131" x="711.5" y="919.1348">RouterPathI _routerPath;</text><rect fill="none" height="6" style="stroke: #C82930; stroke-width: 1.0;" width="6" x="699.5" y="926.4326"/><text fill="#000000" font-family="sans-serif" font-size="11" lengthAdjust="spacingAndGlyphs" textLength="115" x="711.5" y="932.0898">P2pClient _p2pClient;</text><line style="stroke: #A80036; stroke-width: 1.5;" x1="692.5" x2="922.5" y1="938.4102" y2="938.4102"/><ellipse cx="702.5" cy="950.3877" fill="#84BE84" rx="3" ry="3" style="stroke: #038048; stroke-width: 1.0;"/><text fill="#000000" font-family="sans-serif" font-size="11" lengthAdjust="spacingAndGlyphs" textLength="206" x="711.5" y="953.0449">sendData(){_routerPath.pathSendPkt()}</text><rect fill="#FEFECE" filter="url(#f1)" height="78.8652" style="stroke: #A80036; stroke-width: 1.5;" width="172" x="568.5" y="1358"/><ellipse cx="597.9" cy="1374" fill="#B4A7E5" rx="11" ry="11" style="stroke: #A80036; stroke-width: 1.0;"/><path d="M593.8277,1369.7651 L593.8277,1367.6069 L601.2071,1367.6069 L601.2071,1369.7651 L598.7418,1369.7651 L598.7418,1377.8418 L601.2071,1377.8418 L601.2071,1380 L593.8277,1380 L593.8277,1377.8418 L596.2931,1377.8418 L596.2931,1369.7651 Z "/><text fill="#000000" font-family="sans-serif" font-size="12" font-style="italic" lengthAdjust="spacingAndGlyphs" textLength="108" x="615.1" y="1378.5352">ConnectionListener</text><line style="stroke: #A80036; stroke-width: 1.5;" x1="569.5" x2="739.5" y1="1390" y2="1390"/><ellipse cx="579.5" cy="1401.9775" fill="#84BE84" rx="3" ry="3" style="stroke: #038048; stroke-width: 1.0;"/><text fill="#000000" font-family="sans-serif" font-size="11" lengthAdjust="spacingAndGlyphs" textLength="146" x="588.5" y="1404.6348">onConnReady(connection);</text><ellipse cx="579.5" cy="1414.9326" fill="#84BE84" rx="3" ry="3" style="stroke: #038048; stroke-width: 1.0;"/><text fill="#000000" font-family="sans-serif" font-size="11" lengthAdjust="spacingAndGlyphs" textLength="144" x="588.5" y="1417.5898">onConnClose(connection);</text><ellipse cx="579.5" cy="1427.8877" fill="#84BE84" rx="3" ry="3" style="stroke: #038048; stroke-width: 1.0;"/><text fill="#000000" font-family="sans-serif" font-size="11" lengthAdjust="spacingAndGlyphs" textLength="143" x="588.5" y="1430.5449">onConnReset(connection);</text><rect fill="#FEFECE" filter="url(#f1)" height="125.7305" style="stroke: #A80036; stroke-width: 1.5;" width="230" x="414.5" y="505"/><ellipse cx="488.75" cy="521" fill="#ADD1B2" rx="11" ry="11" style="stroke: #A80036; stroke-width: 1.0;"/><path d="M491.7231,526.6431 Q491.1421,526.9419 490.5029,527.0913 Q489.8638,527.2407 489.1582,527.2407 Q486.6514,527.2407 485.3315,525.5889 Q484.0117,523.937 484.0117,520.8159 Q484.0117,517.6865 485.3315,516.0347 Q486.6514,514.3828 489.1582,514.3828 Q489.8638,514.3828 490.5112,514.5322 Q491.1587,514.6816 491.7231,514.9805 L491.7231,517.7031 Q491.0923,517.1221 490.4988,516.8523 Q489.9053,516.5825 489.2744,516.5825 Q487.9297,516.5825 487.2449,517.6492 Q486.5601,518.7158 486.5601,520.8159 Q486.5601,522.9077 487.2449,523.9744 Q487.9297,525.041 489.2744,525.041 Q489.9053,525.041 490.4988,524.7712 Q491.0923,524.5015 491.7231,523.9204 Z "/><text fill="#000000" font-family="sans-serif" font-size="12" lengthAdjust="spacingAndGlyphs" textLength="73" x="509.25" y="525.5352">RouterClientI</text><line style="stroke: #A80036; stroke-width: 1.5;" x1="415.5" x2="643.5" y1="537" y2="537"/><rect fill="none" height="6" style="stroke: #C82930; stroke-width: 1.0;" width="6" x="422.5" y="545.9775"/><text fill="#000000" font-family="sans-serif" font-size="11" lengthAdjust="spacingAndGlyphs" textLength="164" x="434.5" y="551.6348">map&lt;ListenPort&gt; _listenPorts;</text><rect fill="none" height="6" style="stroke: #C82930; stroke-width: 1.0;" width="6" x="422.5" y="558.9326"/><text fill="#000000" font-family="sans-serif" font-size="11" lengthAdjust="spacingAndGlyphs" textLength="178" x="434.5" y="564.5898">map&lt;RouterItemI&gt; _routerItems;</text><rect fill="none" height="6" style="stroke: #C82930; stroke-width: 1.0;" width="6" x="422.5" y="571.8877"/><text fill="#000000" font-family="sans-serif" font-size="11" lengthAdjust="spacingAndGlyphs" textLength="186" x="434.5" y="577.5449">map&lt;RemoteItemI&gt; _remoteItems;</text><line style="stroke: #A80036; stroke-width: 1.5;" x1="415.5" x2="643.5" y1="583.8652" y2="583.8652"/><ellipse cx="425.5" cy="595.8428" fill="#84BE84" rx="3" ry="3" style="stroke: #038048; stroke-width: 1.0;"/><text fill="#000000" font-family="sans-serif" font-size="11" lengthAdjust="spacingAndGlyphs" textLength="204" x="434.5" y="598.5">onSendTo(){_remoteItems.sendData()}</text><ellipse cx="425.5" cy="608.7979" fill="#84BE84" rx="3" ry="3" style="stroke: #038048; stroke-width: 1.0;"/><text fill="#000000" font-family="sans-serif" font-size="11" lengthAdjust="spacingAndGlyphs" textLength="155" x="434.5" y="611.4551">onClientLoadResult(routers);</text><ellipse cx="425.5" cy="621.7529" fill="#84BE84" rx="3" ry="3" style="stroke: #038048; stroke-width: 1.0;"/><text fill="#000000" font-family="sans-serif" font-size="11" lengthAdjust="spacingAndGlyphs" textLength="196" x="434.5" y="624.4102">onGetConnection(){new RouterPathI}</text><rect fill="#FEFECE" filter="url(#f1)" height="52.9551" style="stroke: #A80036; stroke-width: 1.5;" width="122" x="1295.5" y="307"/><ellipse cx="1318.6" cy="323" fill="#B4A7E5" rx="11" ry="11" style="stroke: #A80036; stroke-width: 1.0;"/><path d="M1314.5277,318.7651 L1314.5277,316.6069 L1321.9071,316.6069 L1321.9071,318.7651 L1319.4418,318.7651 L1319.4418,326.8418 L1321.9071,326.8418 L1321.9071,329 L1314.5277,329 L1314.5277,326.8418 L1316.9931,326.8418 L1316.9931,318.7651 Z "/><text fill="#000000" font-family="sans-serif" font-size="12" font-style="italic" lengthAdjust="spacingAndGlyphs" textLength="72" x="1334.4" y="327.5352">PortReceiver</text><line style="stroke: #A80036; stroke-width: 1.5;" x1="1296.5" x2="1416.5" y1="339" y2="339"/><ellipse cx="1306.5" cy="350.9775" fill="#84BE84" rx="3" ry="3" style="stroke: #038048; stroke-width: 1.0;"/><text fill="#000000" font-family="sans-serif" font-size="11" lengthAdjust="spacingAndGlyphs" textLength="96" x="1315.5" y="353.6348">onPortRecvData();</text><rect fill="#FEFECE" filter="url(#f1)" height="86.8652" style="stroke: #A80036; stroke-width: 1.5;" width="136" x="977.5" y="705"/><ellipse cx="1004.65" cy="721" fill="#A9DCDF" rx="11" ry="11" style="stroke: #A80036; stroke-width: 1.0;"/><path d="M1004.7633,716.3481 L1003.6095,721.4199 L1005.9254,721.4199 Z M1003.2691,714.1069 L1006.2657,714.1069 L1009.6109,726.5 L1007.1622,726.5 L1006.3985,723.437 L1003.1197,723.437 L1002.3727,726.5 L999.9239,726.5 Z "/><text fill="#000000" font-family="sans-serif" font-size="12" font-style="italic" lengthAdjust="spacingAndGlyphs" textLength="77" x="1021.35" y="725.5352">NetArcDriverI</text><line style="stroke: #A80036; stroke-width: 1.5;" x1="978.5" x2="1112.5" y1="737" y2="737"/><ellipse cx="988.5" cy="748.9775" fill="none" rx="3" ry="3" style="stroke: #038048; stroke-width: 1.0;"/><text fill="#000000" font-family="sans-serif" font-size="11" lengthAdjust="spacingAndGlyphs" textLength="110" x="997.5" y="751.6348">NetDriverPtr _driver;</text><line style="stroke: #A80036; stroke-width: 1.5;" x1="978.5" x2="1112.5" y1="757.9551" y2="757.9551"/><ellipse cx="988.5" cy="769.9326" fill="#84BE84" rx="3" ry="3" style="stroke: #038048; stroke-width: 1.0;"/><text fill="#000000" font-family="sans-serif" font-size="11" lengthAdjust="spacingAndGlyphs" textLength="81" x="997.5" y="772.5898">onSendTo()=0;</text><ellipse cx="988.5" cy="782.8877" fill="#84BE84" rx="3" ry="3" style="stroke: #038048; stroke-width: 1.0;"/><text fill="#000000" font-family="sans-serif" font-size="11" lengthAdjust="spacingAndGlyphs" textLength="98" x="997.5" y="785.5449">onStartListen()=0;</text><rect fill="#FEFECE" filter="url(#f1)" height="52.9551" style="stroke: #A80036; stroke-width: 1.5;" width="277" x="6" y="307"/><ellipse cx="101.25" cy="323" fill="#B4A7E5" rx="11" ry="11" style="stroke: #A80036; stroke-width: 1.0;"/><path d="M97.1777,318.7651 L97.1777,316.6069 L104.5571,316.6069 L104.5571,318.7651 L102.0918,318.7651 L102.0918,326.8418 L104.5571,326.8418 L104.5571,329 L97.1777,329 L97.1777,326.8418 L99.6431,326.8418 L99.6431,318.7651 Z "/><text fill="#000000" font-family="sans-serif" font-size="12" font-style="italic" lengthAdjust="spacingAndGlyphs" textLength="78" x="121.75" y="327.5352">AgentListener</text><line style="stroke: #A80036; stroke-width: 1.5;" x1="7" x2="282" y1="339" y2="339"/><ellipse cx="17" cy="350.9775" fill="#84BE84" rx="3" ry="3" style="stroke: #038048; stroke-width: 1.0;"/><text fill="#000000" font-family="sans-serif" font-size="11" lengthAdjust="spacingAndGlyphs" textLength="251" x="26" y="353.6348">Connection onGetConnection(agent,endpoint);</text><rect fill="#FEFECE" filter="url(#f1)" height="86.8652" style="stroke: #A80036; stroke-width: 1.5;" width="236" x="958.5" y="872.5"/><ellipse cx="1041.75" cy="888.5" fill="#ADD1B2" rx="11" ry="11" style="stroke: #A80036; stroke-width: 1.0;"/><path d="M1044.7231,894.1431 Q1044.1421,894.4419 1043.5029,894.5913 Q1042.8638,894.7407 1042.1582,894.7407 Q1039.6514,894.7407 1038.3315,893.0889 Q1037.0117,891.437 1037.0117,888.3159 Q1037.0117,885.1865 1038.3315,883.5347 Q1039.6514,881.8828 1042.1582,881.8828 Q1042.8638,881.8828 1043.5112,882.0322 Q1044.1587,882.1816 1044.7231,882.4805 L1044.7231,885.2031 Q1044.0923,884.6221 1043.4988,884.3523 Q1042.9053,884.0825 1042.2744,884.0825 Q1040.9297,884.0825 1040.2449,885.1492 Q1039.5601,886.2158 1039.5601,888.3159 Q1039.5601,890.4077 1040.2449,891.4744 Q1040.9297,892.541 1042.2744,892.541 Q1042.9053,892.541 1043.4988,892.2712 Q1044.0923,892.0015 1044.7231,891.4204 Z "/><text fill="#000000" font-family="sans-serif" font-size="12" lengthAdjust="spacingAndGlyphs" textLength="61" x="1062.25" y="893.0352">AgentItemI</text><line style="stroke: #A80036; stroke-width: 1.5;" x1="959.5" x2="1193.5" y1="904.5" y2="904.5"/><rect fill="none" height="6" style="stroke: #C82930; stroke-width: 1.0;" width="6" x="966.5" y="913.4775"/><text fill="#000000" font-family="sans-serif" font-size="11" lengthAdjust="spacingAndGlyphs" textLength="178" x="978.5" y="919.1348">RouterAgentAgent _routerAgent;</text><rect fill="none" height="6" style="stroke: #C82930; stroke-width: 1.0;" width="6" x="966.5" y="926.4326"/><text fill="#000000" font-family="sans-serif" font-size="11" lengthAdjust="spacingAndGlyphs" textLength="131" x="978.5" y="932.0898">RouterPathI _routerPath;</text><line style="stroke: #A80036; stroke-width: 1.5;" x1="959.5" x2="1193.5" y1="938.4102" y2="938.4102"/><ellipse cx="969.5" cy="950.3877" fill="#84BE84" rx="3" ry="3" style="stroke: #038048; stroke-width: 1.0;"/><text fill="#000000" font-family="sans-serif" font-size="11" lengthAdjust="spacingAndGlyphs" textLength="210" x="978.5" y="953.0449">onSendTo(){_routerPath.pathSendPkt()}</text><rect fill="#FEFECE" filter="url(#f1)" height="32" style="stroke: #A80036; stroke-width: 1.5;" width="136" x="1004.5" y="1063.5"/><ellipse cx="1019.5" cy="1079.5" fill="#B4A7E5" rx="11" ry="11" style="stroke: #A80036; stroke-width: 1.0;"/><path d="M1015.4277,1075.2651 L1015.4277,1073.1069 L1022.8071,1073.1069 L1022.8071,1075.2651 L1020.3418,1075.2651 L1020.3418,1083.3418 L1022.8071,1083.3418 L1022.8071,1085.5 L1015.4277,1085.5 L1015.4277,1083.3418 L1017.8931,1083.3418 L1017.8931,1075.2651 Z "/><text fill="#000000" font-family="sans-serif" font-size="12" font-style="italic" lengthAdjust="spacingAndGlyphs" textLength="104" x="1033.5" y="1084.0352">RouterAgentAgent</text><rect fill="#FEFECE" filter="url(#f1)" height="73.9102" style="stroke: #A80036; stroke-width: 1.5;" width="226" x="713.5" y="531"/><ellipse cx="785.25" cy="547" fill="#ADD1B2" rx="11" ry="11" style="stroke: #A80036; stroke-width: 1.0;"/><path d="M788.2231,552.6431 Q787.6421,552.9419 787.0029,553.0913 Q786.3638,553.2407 785.6582,553.2407 Q783.1514,553.2407 781.8315,551.5889 Q780.5117,549.937 780.5117,546.8159 Q780.5117,543.6865 781.8315,542.0347 Q783.1514,540.3828 785.6582,540.3828 Q786.3638,540.3828 787.0112,540.5322 Q787.6587,540.6816 788.2231,540.9805 L788.2231,543.7031 Q787.5923,543.1221 786.9988,542.8523 Q786.4053,542.5825 785.7744,542.5825 Q784.4297,542.5825 783.7449,543.6492 Q783.0601,544.7158 783.0601,546.8159 Q783.0601,548.9077 783.7449,549.9744 Q784.4297,551.041 785.7744,551.041 Q786.4053,551.041 786.9988,550.7712 Q787.5923,550.5015 788.2231,549.9204 Z "/><text fill="#000000" font-family="sans-serif" font-size="12" lengthAdjust="spacingAndGlyphs" textLength="74" x="805.75" y="551.5352">RouterAgentI</text><line style="stroke: #A80036; stroke-width: 1.5;" x1="714.5" x2="938.5" y1="563" y2="563"/><rect fill="none" height="6" style="stroke: #C82930; stroke-width: 1.0;" width="6" x="721.5" y="571.9775"/><text fill="#000000" font-family="sans-serif" font-size="11" lengthAdjust="spacingAndGlyphs" textLength="170" x="733.5" y="577.6348">map&lt;AgentItemI&gt; _agentItems;</text><line style="stroke: #A80036; stroke-width: 1.5;" x1="714.5" x2="938.5" y1="583.9551" y2="583.9551"/><ellipse cx="724.5" cy="595.9326" fill="#84BE84" rx="3" ry="3" style="stroke: #038048; stroke-width: 1.0;"/><text fill="#000000" font-family="sans-serif" font-size="11" lengthAdjust="spacingAndGlyphs" textLength="200" x="733.5" y="598.5898">onSendTo(){_agentItems.onSendTo()}</text><rect fill="#FEFECE" filter="url(#f1)" height="99.8203" style="stroke: #A80036; stroke-width: 1.5;" width="242" x="1229.5" y="866"/><ellipse cx="1312.25" cy="882" fill="#ADD1B2" rx="11" ry="11" style="stroke: #A80036; stroke-width: 1.0;"/><path d="M1315.2231,887.6431 Q1314.6421,887.9419 1314.0029,888.0913 Q1313.3638,888.2407 1312.6582,888.2407 Q1310.1514,888.2407 1308.8315,886.5889 Q1307.5117,884.937 1307.5117,881.8159 Q1307.5117,878.6865 1308.8315,877.0347 Q1310.1514,875.3828 1312.6582,875.3828 Q1313.3638,875.3828 1314.0112,875.5322 Q1314.6587,875.6816 1315.2231,875.9805 L1315.2231,878.7031 Q1314.5923,878.1221 1313.9988,877.8523 Q1313.4053,877.5825 1312.7744,877.5825 Q1311.4297,877.5825 1310.7449,878.6492 Q1310.0601,879.7158 1310.0601,881.8159 Q1310.0601,883.9077 1310.7449,884.9744 Q1311.4297,886.041 1312.7744,886.041 Q1313.4053,886.041 1313.9988,885.7712 Q1314.5923,885.5015 1315.2231,884.9204 Z "/><text fill="#000000" font-family="sans-serif" font-size="12" lengthAdjust="spacingAndGlyphs" textLength="68" x="1332.75" y="886.5352">DirectNodeI</text><line style="stroke: #A80036; stroke-width: 1.5;" x1="1230.5" x2="1470.5" y1="898" y2="898"/><rect fill="none" height="6" style="stroke: #C82930; stroke-width: 1.0;" width="6" x="1237.5" y="906.9775"/><text fill="#000000" font-family="sans-serif" font-size="11" lengthAdjust="spacingAndGlyphs" textLength="131" x="1249.5" y="912.6348">RouterPathI _routerPath;</text><line style="stroke: #A80036; stroke-width: 1.5;" x1="1230.5" x2="1470.5" y1="918.9551" y2="918.9551"/><rect fill="#F24D5C" height="6" style="stroke: #C82930; stroke-width: 1.0;" width="6" x="1237.5" y="927.9326"/><text fill="#000000" font-family="sans-serif" font-size="11" lengthAdjust="spacingAndGlyphs" textLength="216" x="1249.5" y="933.5898">sendPacket(){_routerPath.pathSendPkt()}</text><rect fill="#F24D5C" height="6" style="stroke: #C82930; stroke-width: 1.0;" width="6" x="1237.5" y="940.8877"/><text fill="#000000" font-family="sans-serif" font-size="11" lengthAdjust="spacingAndGlyphs" textLength="143" x="1249.5" y="946.5449">DirectNodeI getSendPath();</text><ellipse cx="1240.5" cy="956.8428" fill="#84BE84" rx="3" ry="3" style="stroke: #038048; stroke-width: 1.0;"/><text fill="#000000" font-family="sans-serif" font-size="11" lengthAdjust="spacingAndGlyphs" textLength="211" x="1249.5" y="959.5">sendData(){getSendPath().sendPacket()}</text><rect fill="#FEFECE" filter="url(#f1)" height="52.9551" style="stroke: #A80036; stroke-width: 1.5;" width="140" x="1577.5" y="889.5"/><ellipse cx="1615.45" cy="905.5" fill="#ADD1B2" rx="11" ry="11" style="stroke: #A80036; stroke-width: 1.0;"/><path d="M1618.4231,911.1431 Q1617.8421,911.4419 1617.2029,911.5913 Q1616.5638,911.7407 1615.8582,911.7407 Q1613.3514,911.7407 1612.0315,910.0889 Q1610.7117,908.437 1610.7117,905.3159 Q1610.7117,902.1865 1612.0315,900.5347 Q1613.3514,898.8828 1615.8582,898.8828 Q1616.5638,898.8828 1617.2112,899.0322 Q1617.8587,899.1816 1618.4231,899.4805 L1618.4231,902.2031 Q1617.7923,901.6221 1617.1988,901.3523 Q1616.6053,901.0825 1615.9744,901.0825 Q1614.6297,901.0825 1613.9449,902.1492 Q1613.2601,903.2158 1613.2601,905.3159 Q1613.2601,907.4077 1613.9449,908.4744 Q1614.6297,909.541 1615.9744,909.541 Q1616.6053,909.541 1617.1988,909.2712 Q1617.7923,909.0015 1618.4231,908.4204 Z "/><text fill="#000000" font-family="sans-serif" font-size="12" lengthAdjust="spacingAndGlyphs" textLength="57" x="1634.55" y="910.0352">ClientPath</text><line style="stroke: #A80036; stroke-width: 1.5;" x1="1578.5" x2="1716.5" y1="921.5" y2="921.5"/><ellipse cx="1588.5" cy="933.4775" fill="none" rx="3" ry="3" style="stroke: #038048; stroke-width: 1.0;"/><text fill="#000000" font-family="sans-serif" font-size="11" lengthAdjust="spacingAndGlyphs" textLength="114" x="1597.5" y="936.1348">DirectNodeI _toNode;</text><rect fill="#FEFECE" filter="url(#f1)" height="65.9102" style="stroke: #A80036; stroke-width: 1.5;" width="116" x="1540.5" y="715.5"/><ellipse cx="1567.65" cy="731.5" fill="#ADD1B2" rx="11" ry="11" style="stroke: #A80036; stroke-width: 1.0;"/><path d="M1570.6231,737.1431 Q1570.0421,737.4419 1569.4029,737.5913 Q1568.7638,737.7407 1568.0582,737.7407 Q1565.5514,737.7407 1564.2315,736.0889 Q1562.9117,734.437 1562.9117,731.3159 Q1562.9117,728.1865 1564.2315,726.5347 Q1565.5514,724.8828 1568.0582,724.8828 Q1568.7638,724.8828 1569.4112,725.0322 Q1570.0587,725.1816 1570.6231,725.4805 L1570.6231,728.2031 Q1569.9923,727.6221 1569.3988,727.3523 Q1568.8053,727.0825 1568.1744,727.0825 Q1566.8297,727.0825 1566.1449,728.1492 Q1565.4601,729.2158 1565.4601,731.3159 Q1565.4601,733.4077 1566.1449,734.4744 Q1566.8297,735.541 1568.1744,735.541 Q1568.8053,735.541 1569.3988,735.2712 Q1569.9923,735.0015 1570.6231,734.4204 Z "/><text fill="#000000" font-family="sans-serif" font-size="12" lengthAdjust="spacingAndGlyphs" textLength="57" x="1584.35" y="736.0352">ClientCost</text><line style="stroke: #A80036; stroke-width: 1.5;" x1="1541.5" x2="1655.5" y1="747.5" y2="747.5"/><ellipse cx="1551.5" cy="759.4775" fill="none" rx="3" ry="3" style="stroke: #038048; stroke-width: 1.0;"/><text fill="#000000" font-family="sans-serif" font-size="11" lengthAdjust="spacingAndGlyphs" textLength="90" x="1560.5" y="762.1348">ClientPath _path;</text><ellipse cx="1551.5" cy="772.4326" fill="none" rx="3" ry="3" style="stroke: #038048; stroke-width: 1.0;"/><text fill="#000000" font-family="sans-serif" font-size="11" lengthAdjust="spacingAndGlyphs" textLength="29" x="1560.5" y="775.0898">_cost</text><rect fill="#FEFECE" filter="url(#f1)" height="99.8203" style="stroke: #A80036; stroke-width: 1.5;" width="239" x="1726" y="698.5"/><ellipse cx="1801.75" cy="714.5" fill="#ADD1B2" rx="11" ry="11" style="stroke: #A80036; stroke-width: 1.0;"/><path d="M1804.7231,720.1431 Q1804.1421,720.4419 1803.5029,720.5913 Q1802.8638,720.7407 1802.1582,720.7407 Q1799.6514,720.7407 1798.3315,719.0889 Q1797.0117,717.437 1797.0117,714.3159 Q1797.0117,711.1865 1798.3315,709.5347 Q1799.6514,707.8828 1802.1582,707.8828 Q1802.8638,707.8828 1803.5112,708.0322 Q1804.1587,708.1816 1804.7231,708.4805 L1804.7231,711.2031 Q1804.0923,710.6221 1803.4988,710.3523 Q1802.9053,710.0825 1802.2744,710.0825 Q1800.9297,710.0825 1800.2449,711.1492 Q1799.5601,712.2158 1799.5601,714.3159 Q1799.5601,716.4077 1800.2449,717.4744 Q1800.9297,718.541 1802.2744,718.541 Q1802.9053,718.541 1803.4988,718.2712 Q1804.0923,718.0015 1804.7231,717.4204 Z "/><text fill="#000000" font-family="sans-serif" font-size="12" lengthAdjust="spacingAndGlyphs" textLength="79" x="1822.25" y="719.0352">RemoteClientI</text><line style="stroke: #A80036; stroke-width: 1.5;" x1="1727" x2="1964" y1="730.5" y2="730.5"/><rect fill="none" height="6" style="stroke: #C82930; stroke-width: 1.0;" width="6" x="1734" y="739.4775"/><text fill="#000000" font-family="sans-serif" font-size="11" lengthAdjust="spacingAndGlyphs" textLength="165" x="1746" y="745.1348">map&lt;ClientPath&gt; _clientPaths;</text><rect fill="none" height="6" style="stroke: #C82930; stroke-width: 1.0;" width="6" x="1734" y="752.4326"/><text fill="#000000" font-family="sans-serif" font-size="11" lengthAdjust="spacingAndGlyphs" textLength="177" x="1746" y="758.0898">set&lt;ClientCost&gt; _pathArrays[4];</text><line style="stroke: #A80036; stroke-width: 1.5;" x1="1727" x2="1964" y1="764.4102" y2="764.4102"/><rect fill="#F24D5C" height="6" style="stroke: #C82930; stroke-width: 1.0;" width="6" x="1734" y="773.3877"/><text fill="#000000" font-family="sans-serif" font-size="11" lengthAdjust="spacingAndGlyphs" textLength="155" x="1746" y="779.0449">DirectNodeI __getSendPath();</text><ellipse cx="1737" cy="789.3428" fill="#84BE84" rx="3" ry="3" style="stroke: #038048; stroke-width: 1.0;"/><text fill="#000000" font-family="sans-serif" font-size="11" lengthAdjust="spacingAndGlyphs" textLength="213" x="1746" y="792">sendData(){__getSendPath().sendData()}</text><rect fill="#FEFECE" filter="url(#f1)" height="32" style="stroke: #A80036; stroke-width: 1.5;" width="101" x="2000" y="732.5"/><ellipse cx="2015" cy="748.5" fill="#ADD1B2" rx="11" ry="11" style="stroke: #A80036; stroke-width: 1.0;"/><path d="M2017.9731,754.1431 Q2017.3921,754.4419 2016.7529,754.5913 Q2016.1138,754.7407 2015.4082,754.7407 Q2012.9014,754.7407 2011.5815,753.0889 Q2010.2617,751.437 2010.2617,748.3159 Q2010.2617,745.1865 2011.5815,743.5347 Q2012.9014,741.8828 2015.4082,741.8828 Q2016.1138,741.8828 2016.7612,742.0322 Q2017.4087,742.1816 2017.9731,742.4805 L2017.9731,745.2031 Q2017.3423,744.6221 2016.7488,744.3523 Q2016.1553,744.0825 2015.5244,744.0825 Q2014.1797,744.0825 2013.4949,745.1492 Q2012.8101,746.2158 2012.8101,748.3159 Q2012.8101,750.4077 2013.4949,751.4744 Q2014.1797,752.541 2015.5244,752.541 Q2016.1553,752.541 2016.7488,752.2712 Q2017.3423,752.0015 2017.9731,751.4204 Z "/><text fill="#000000" font-family="sans-serif" font-size="12" lengthAdjust="spacingAndGlyphs" textLength="69" x="2029" y="753.0352">DirectClientI</text><rect fill="#FEFECE" filter="url(#f1)" height="125.7305" style="stroke: #A80036; stroke-width: 1.5;" width="315" x="1363" y="505"/><ellipse cx="1480.25" cy="521" fill="#ADD1B2" rx="11" ry="11" style="stroke: #A80036; stroke-width: 1.0;"/><path d="M1483.2231,526.6431 Q1482.6421,526.9419 1482.0029,527.0913 Q1481.3638,527.2407 1480.6582,527.2407 Q1478.1514,527.2407 1476.8315,525.5889 Q1475.5117,523.937 1475.5117,520.8159 Q1475.5117,517.6865 1476.8315,516.0347 Q1478.1514,514.3828 1480.6582,514.3828 Q1481.3638,514.3828 1482.0112,514.5322 Q1482.6587,514.6816 1483.2231,514.9805 L1483.2231,517.7031 Q1482.5923,517.1221 1481.9988,516.8523 Q1481.4053,516.5825 1480.7744,516.5825 Q1479.4297,516.5825 1478.7449,517.6492 Q1478.0601,518.7158 1478.0601,520.8159 Q1478.0601,522.9077 1478.7449,523.9744 Q1479.4297,525.041 1480.7744,525.041 Q1481.4053,525.041 1481.9988,524.7712 Q1482.5923,524.5015 1483.2231,523.9204 Z "/><text fill="#000000" font-family="sans-serif" font-size="12" lengthAdjust="spacingAndGlyphs" textLength="72" x="1500.75" y="525.5352">RouterNodeI</text><line style="stroke: #A80036; stroke-width: 1.5;" x1="1364" x2="1677" y1="537" y2="537"/><rect fill="none" height="6" style="stroke: #C82930; stroke-width: 1.0;" width="6" x="1371" y="545.9775"/><text fill="#000000" font-family="sans-serif" font-size="11" lengthAdjust="spacingAndGlyphs" textLength="164" x="1383" y="551.6348">map&lt;ListenPort&gt; _listenPorts;</text><rect fill="none" height="6" style="stroke: #C82930; stroke-width: 1.0;" width="6" x="1371" y="558.9326"/><text fill="#000000" font-family="sans-serif" font-size="11" lengthAdjust="spacingAndGlyphs" textLength="202" x="1383" y="564.5898">map&lt;RemoteClientI&gt; _remoteClients;</text><rect fill="none" height="6" style="stroke: #C82930; stroke-width: 1.0;" width="6" x="1371" y="571.8877"/><text fill="#000000" font-family="sans-serif" font-size="11" lengthAdjust="spacingAndGlyphs" textLength="187" x="1383" y="577.5449">map&lt;DirectClientI&gt; _directClients;</text><rect fill="none" height="6" style="stroke: #C82930; stroke-width: 1.0;" width="6" x="1371" y="584.8428"/><text fill="#000000" font-family="sans-serif" font-size="11" lengthAdjust="spacingAndGlyphs" textLength="181" x="1383" y="590.5">map&lt;DirectNodeI&gt; _directNodes;</text><rect fill="none" height="6" style="stroke: #C82930; stroke-width: 1.0;" width="6" x="1371" y="597.7979"/><text fill="#000000" font-family="sans-serif" font-size="11" lengthAdjust="spacingAndGlyphs" textLength="189" x="1383" y="603.4551">map&lt;DirectAgentI&gt; _directAgents;</text><line style="stroke: #A80036; stroke-width: 1.5;" x1="1364" x2="1677" y1="609.7754" y2="609.7754"/><ellipse cx="1374" cy="621.7529" fill="#84BE84" rx="3" ry="3" style="stroke: #038048; stroke-width: 1.0;"/><text fill="#000000" font-family="sans-serif" font-size="11" lengthAdjust="spacingAndGlyphs" textLength="289" x="1383" y="624.4102">onSendTo(){_remoteClients/_directNodes.sendData()}</text><rect fill="#FEFECE" filter="url(#f1)" height="52.9551" style="stroke: #A80036; stroke-width: 1.5;" width="286" x="1591.5" y="307"/><ellipse cx="1684.25" cy="323" fill="#B4A7E5" rx="11" ry="11" style="stroke: #A80036; stroke-width: 1.0;"/><path d="M1680.1777,318.7651 L1680.1777,316.6069 L1687.5571,316.6069 L1687.5571,318.7651 L1685.0918,318.7651 L1685.0918,326.8418 L1687.5571,326.8418 L1687.5571,329 L1680.1777,329 L1680.1777,326.8418 L1682.6431,326.8418 L1682.6431,318.7651 Z "/><text fill="#000000" font-family="sans-serif" font-size="12" font-style="italic" lengthAdjust="spacingAndGlyphs" textLength="92" x="1704.75" y="327.5352">AdapterListener</text><line style="stroke: #A80036; stroke-width: 1.5;" x1="1592.5" x2="1876.5" y1="339" y2="339"/><ellipse cx="1602.5" cy="350.9775" fill="#84BE84" rx="3" ry="3" style="stroke: #038048; stroke-width: 1.0;"/><text fill="#000000" font-family="sans-serif" font-size="11" lengthAdjust="spacingAndGlyphs" textLength="260" x="1611.5" y="353.6348">Connection onRecvConnection(sender,receiver);</text><rect fill="#FEFECE" filter="url(#f1)" height="32" style="stroke: #A80036; stroke-width: 1.5;" width="102" x="1403.5" y="732.5"/><ellipse cx="1418.5" cy="748.5" fill="#ADD1B2" rx="11" ry="11" style="stroke: #A80036; stroke-width: 1.0;"/><path d="M1421.4731,754.1431 Q1420.8921,754.4419 1420.2529,754.5913 Q1419.6138,754.7407 1418.9082,754.7407 Q1416.4014,754.7407 1415.0815,753.0889 Q1413.7617,751.437 1413.7617,748.3159 Q1413.7617,745.1865 1415.0815,743.5347 Q1416.4014,741.8828 1418.9082,741.8828 Q1419.6138,741.8828 1420.2612,742.0322 Q1420.9087,742.1816 1421.4731,742.4805 L1421.4731,745.2031 Q1420.8423,744.6221 1420.2488,744.3523 Q1419.6553,744.0825 1419.0244,744.0825 Q1417.6797,744.0825 1416.9949,745.1492 Q1416.3101,746.2158 1416.3101,748.3159 Q1416.3101,750.4077 1416.9949,751.4744 Q1417.6797,752.541 1419.0244,752.541 Q1419.6553,752.541 1420.2488,752.2712 Q1420.8423,752.0015 1421.4731,751.4204 Z "/><text fill="#000000" font-family="sans-serif" font-size="12" lengthAdjust="spacingAndGlyphs" textLength="70" x="1432.5" y="753.0352">DirectAgentI</text><rect fill="#FEFECE" filter="url(#f1)" height="78.8652" style="stroke: #A80036; stroke-width: 1.5;" width="125" x="1748" y="528.5"/><ellipse cx="1770.65" cy="544.5" fill="#B4A7E5" rx="11" ry="11" style="stroke: #A80036; stroke-width: 1.0;"/><path d="M1766.5777,540.2651 L1766.5777,538.1069 L1773.9571,538.1069 L1773.9571,540.2651 L1771.4918,540.2651 L1771.4918,548.3418 L1773.9571,548.3418 L1773.9571,550.5 L1766.5777,550.5 L1766.5777,548.3418 L1769.0431,548.3418 L1769.0431,540.2651 Z "/><text fill="#000000" font-family="sans-serif" font-size="12" font-style="italic" lengthAdjust="spacingAndGlyphs" textLength="76" x="1786.35" y="549.0352">NodeListener</text><line style="stroke: #A80036; stroke-width: 1.5;" x1="1749" x2="1872" y1="560.5" y2="560.5"/><ellipse cx="1759" cy="572.4775" fill="#84BE84" rx="3" ry="3" style="stroke: #038048; stroke-width: 1.0;"/><text fill="#000000" font-family="sans-serif" font-size="11" lengthAdjust="spacingAndGlyphs" textLength="99" x="1768" y="575.1348">onConfigsReady();</text><ellipse cx="1759" cy="585.4326" fill="#84BE84" rx="3" ry="3" style="stroke: #038048; stroke-width: 1.0;"/><text fill="#000000" font-family="sans-serif" font-size="11" lengthAdjust="spacingAndGlyphs" textLength="97" x="1768" y="588.0898">onResolveHosts();</text><ellipse cx="1759" cy="598.3877" fill="#84BE84" rx="3" ry="3" style="stroke: #038048; stroke-width: 1.0;"/><text fill="#000000" font-family="sans-serif" font-size="11" lengthAdjust="spacingAndGlyphs" textLength="74" x="1768" y="601.0449">onSortDists();</text><rect fill="#FEFECE" filter="url(#f1)" height="32" style="stroke: #A80036; stroke-width: 1.5;" width="104" x="1957.5" y="317.5"/><ellipse cx="1972.5" cy="333.5" fill="#ADD1B2" rx="11" ry="11" style="stroke: #A80036; stroke-width: 1.0;"/><path d="M1975.4731,339.1431 Q1974.8921,339.4419 1974.2529,339.5913 Q1973.6138,339.7407 1972.9082,339.7407 Q1970.4014,339.7407 1969.0815,338.0889 Q1967.7617,336.437 1967.7617,333.3159 Q1967.7617,330.1865 1969.0815,328.5347 Q1970.4014,326.8828 1972.9082,326.8828 Q1973.6138,326.8828 1974.2612,327.0322 Q1974.9087,327.1816 1975.4731,327.4805 L1975.4731,330.2031 Q1974.8423,329.6221 1974.2488,329.3523 Q1973.6553,329.0825 1973.0244,329.0825 Q1971.6797,329.0825 1970.9949,330.1492 Q1970.3101,331.2158 1970.3101,333.3159 Q1970.3101,335.4077 1970.9949,336.4744 Q1971.6797,337.541 1973.0244,337.541 Q1973.6553,337.541 1974.2488,337.2712 Q1974.8423,337.0015 1975.4731,336.4204 Z "/><text fill="#000000" font-family="sans-serif" font-size="12" lengthAdjust="spacingAndGlyphs" textLength="72" x="1986.5" y="338.0352">AgentServerI</text><rect fill="#FEFECE" filter="url(#f1)" height="32" style="stroke: #A80036; stroke-width: 1.5;" width="103" x="1453" y="317.5"/><ellipse cx="1468" cy="333.5" fill="#ADD1B2" rx="11" ry="11" style="stroke: #A80036; stroke-width: 1.0;"/><path d="M1470.9731,339.1431 Q1470.3921,339.4419 1469.7529,339.5913 Q1469.1138,339.7407 1468.4082,339.7407 Q1465.9014,339.7407 1464.5815,338.0889 Q1463.2617,336.437 1463.2617,333.3159 Q1463.2617,330.1865 1464.5815,328.5347 Q1465.9014,326.8828 1468.4082,326.8828 Q1469.1138,326.8828 1469.7612,327.0322 Q1470.4087,327.1816 1470.9731,327.4805 L1470.9731,330.2031 Q1470.3423,329.6221 1469.7488,329.3523 Q1469.1553,329.0825 1468.5244,329.0825 Q1467.1797,329.0825 1466.4949,330.1492 Q1465.8101,331.2158 1465.8101,333.3159 Q1465.8101,335.4077 1466.4949,336.4744 Q1467.1797,337.541 1468.5244,337.541 Q1469.1553,337.541 1469.7488,337.2712 Q1470.3423,337.0015 1470.9731,336.4204 Z "/><text fill="#000000" font-family="sans-serif" font-size="12" lengthAdjust="spacingAndGlyphs" textLength="71" x="1482" y="338.0352">ClientServerI</text><ellipse cx="1917.5" cy="333.5" fill="#FEFECE" filter="url(#f1)" rx="5" ry="5" style="stroke: #A80036; stroke-width: 1.5;"/><text fill="#000000" font-family="sans-serif" font-size="12" lengthAdjust="spacingAndGlyphs" textLength="69" x="1883" y="350.1016">RouterNode</text><ellipse cx="1504.5" cy="108" fill="#FEFECE" filter="url(#f1)" rx="5" ry="5" style="stroke: #A80036; stroke-width: 1.5;"/><text fill="#000000" font-family="sans-serif" font-size="12" lengthAdjust="spacingAndGlyphs" textLength="70" x="1469.5" y="124.6016">RouterClient</text><ellipse cx="2009.5" cy="108" fill="#FEFECE" filter="url(#f1)" rx="5" ry="5" style="stroke: #A80036; stroke-width: 1.5;"/><text fill="#000000" font-family="sans-serif" font-size="12" lengthAdjust="spacingAndGlyphs" textLength="71" x="1974" y="124.6016">RouterAgent</text><rect fill="#FEFECE" filter="url(#f1)" height="32" style="stroke: #A80036; stroke-width: 1.5;" width="99" x="2050" y="92"/><ellipse cx="2065" cy="108" fill="#ADD1B2" rx="11" ry="11" style="stroke: #A80036; stroke-width: 1.0;"/><path d="M2067.9731,113.6431 Q2067.3921,113.9419 2066.7529,114.0913 Q2066.1138,114.2407 2065.4082,114.2407 Q2062.9014,114.2407 2061.5815,112.5889 Q2060.2617,110.937 2060.2617,107.8159 Q2060.2617,104.6865 2061.5815,103.0347 Q2062.9014,101.3828 2065.4082,101.3828 Q2066.1138,101.3828 2066.7612,101.5322 Q2067.4087,101.6816 2067.9731,101.9805 L2067.9731,104.7031 Q2067.3423,104.1221 2066.7488,103.8523 Q2066.1553,103.5825 2065.5244,103.5825 Q2064.1797,103.5825 2063.4949,104.6492 Q2062.8101,105.7158 2062.8101,107.8159 Q2062.8101,109.9077 2063.4949,110.9744 Q2064.1797,112.041 2065.5244,112.041 Q2066.1553,112.041 2066.7488,111.7712 Q2067.3423,111.5015 2067.9731,110.9204 Z "/><text fill="#000000" font-family="sans-serif" font-size="12" lengthAdjust="spacingAndGlyphs" textLength="67" x="2079" y="112.5352">Connection;</text><rect fill="#FEFECE" filter="url(#f1)" height="32" style="stroke: #A80036; stroke-width: 1.5;" width="90" x="566.5" y="900"/><ellipse cx="581.5" cy="916" fill="#ADD1B2" rx="11" ry="11" style="stroke: #A80036; stroke-width: 1.0;"/><path d="M584.4731,921.6431 Q583.8921,921.9419 583.2529,922.0913 Q582.6138,922.2407 581.9082,922.2407 Q579.4014,922.2407 578.0815,920.5889 Q576.7617,918.937 576.7617,915.8159 Q576.7617,912.6865 578.0815,911.0347 Q579.4014,909.3828 581.9082,909.3828 Q582.6138,909.3828 583.2612,909.5322 Q583.9087,909.6816 584.4731,909.9805 L584.4731,912.7031 Q583.8423,912.1221 583.2488,911.8523 Q582.6553,911.5825 582.0244,911.5825 Q580.6797,911.5825 579.9949,912.6492 Q579.3101,913.7158 579.3101,915.8159 Q579.3101,917.9077 579.9949,918.9744 Q580.6797,920.041 582.0244,920.041 Q582.6553,920.041 583.2488,919.7712 Q583.8423,919.5015 584.4731,918.9204 Z "/><text fill="#000000" font-family="sans-serif" font-size="12" lengthAdjust="spacingAndGlyphs" textLength="58" x="595.5" y="920.5352">P2pClientI</text><rect fill="#FEFECE" filter="url(#f1)" height="52.9551" style="stroke: #A80036; stroke-width: 1.5;" width="170" x="1130.5" y="81.5"/><ellipse cx="1183.25" cy="97.5" fill="#ADD1B2" rx="11" ry="11" style="stroke: #A80036; stroke-width: 1.0;"/><path d="M1186.2231,103.1431 Q1185.6421,103.4419 1185.0029,103.5913 Q1184.3638,103.7407 1183.6582,103.7407 Q1181.1514,103.7407 1179.8315,102.0889 Q1178.5117,100.437 1178.5117,97.3159 Q1178.5117,94.1865 1179.8315,92.5347 Q1181.1514,90.8828 1183.6582,90.8828 Q1184.3638,90.8828 1185.0112,91.0322 Q1185.6587,91.1816 1186.2231,91.4805 L1186.2231,94.2031 Q1185.5923,93.6221 1184.9988,93.3523 Q1184.4053,93.0825 1183.7744,93.0825 Q1182.4297,93.0825 1181.7449,94.1492 Q1181.0601,95.2158 1181.0601,97.3159 Q1181.0601,99.4077 1181.7449,100.4744 Q1182.4297,101.541 1183.7744,101.541 Q1184.4053,101.541 1184.9988,101.2712 Q1185.5923,101.0015 1186.2231,100.4204 Z "/><text fill="#000000" font-family="sans-serif" font-size="12" lengthAdjust="spacingAndGlyphs" textLength="56" x="1203.75" y="102.0352">ListenPort</text><line style="stroke: #A80036; stroke-width: 1.5;" x1="1131.5" x2="1299.5" y1="113.5" y2="113.5"/><ellipse cx="1141.5" cy="125.4775" fill="none" rx="3" ry="3" style="stroke: #038048; stroke-width: 1.0;"/><text fill="#000000" font-family="sans-serif" font-size="11" lengthAdjust="spacingAndGlyphs" textLength="144" x="1150.5" y="128.1348">PortReceiver _portReceiver</text><polygon fill="#FBFB77" filter="url(#f1)" points="1048.5,275,1048.5,392.1738,1260.5,392.1738,1260.5,285,1250.5,275,1048.5,275" style="stroke: #A80036; stroke-width: 1.0;"/><polygon fill="#FBFB77" points="1048.5,275,1048.5,392.1738,1260.5,392.1738,1260.5,285,1250.5,275,1174.28,275,1208.5,134.64,1166.28,275,1048.5,275" style="stroke: #A80036; stroke-width: 1.0;"/><line style="stroke: #A80036; stroke-width: 1.0;" x1="1250.5" x2="1250.5" y1="275" y2="285"/><line style="stroke: #A80036; stroke-width: 1.0;" x1="1260.5" x2="1250.5" y1="285" y2="285"/><text fill="#000000" font-family="sans-serif" font-size="13" lengthAdjust="spacingAndGlyphs" textLength="164" x="1054.5" y="292.5684">RouterClientI::_listenPorts</text><text fill="#000000" font-family="sans-serif" font-size="13" lengthAdjust="spacingAndGlyphs" textLength="160" x="1054.5" y="307.8789">RouterNodeI::_listenPorts</text><text fill="#000000" font-family="sans-serif" font-size="13" lengthAdjust="spacingAndGlyphs" textLength="185" x="1054.5" y="323.1895">- RouterItemI::onPathRecvPkt</text><text fill="#000000" font-family="sans-serif" font-size="13" lengthAdjust="spacingAndGlyphs" textLength="187" x="1054.5" y="338.5">- RemoteItemI::onP2pRecvPkt</text><text fill="#000000" font-family="sans-serif" font-size="13" lengthAdjust="spacingAndGlyphs" textLength="191" x="1054.5" y="353.8105">- DirectAgentI::onPathRecvPkt</text><text fill="#000000" font-family="sans-serif" font-size="13" lengthAdjust="spacingAndGlyphs" textLength="191" x="1054.5" y="369.1211">- DirectClientI::onPathRecvPkt</text><text fill="#000000" font-family="sans-serif" font-size="13" lengthAdjust="spacingAndGlyphs" textLength="187" x="1054.5" y="384.4316">- DirectNodeI::onPathRecvPkt</text><ellipse cx="450.5" cy="1397.5" fill="#FEFECE" filter="url(#f1)" rx="5" ry="5" style="stroke: #A80036; stroke-width: 1.5;"/><text fill="#000000" font-family="sans-serif" font-size="12" lengthAdjust="spacingAndGlyphs" textLength="70" x="415.5" y="1414.1016">RouterClient</text><ellipse cx="1072.5" cy="1236.5" fill="#FEFECE" filter="url(#f1)" rx="5" ry="5" style="stroke: #A80036; stroke-width: 1.5;"/><text fill="#000000" font-family="sans-serif" font-size="12" lengthAdjust="spacingAndGlyphs" textLength="71" x="1037" y="1253.1016">RouterAgent</text><path d="M600.5,158.41 C612.44,170.11 624.445,182.99 634.5,196 C659.13,227.87 680.759,268.7 694.58,297.37 " fill="none" style="stroke: #A80036; stroke-width: 1.0;"/><polygon fill="none" points="595.296,163.13,585.563,144.3,604.909,152.95,595.296,163.13" style="stroke: #A80036; stroke-width: 1.0;"/><path d="M543.5,164.54 C543.5,187.02 543.5,213.6 543.5,238.91 " fill="none" style="stroke: #A80036; stroke-width: 1.0;"/><polygon fill="none" points="536.5,164.41,543.5,144.41,550.5,164.41,536.5,164.41" style="stroke: #A80036; stroke-width: 1.0;"/><path d="M486.5,158.41 C474.56,170.11 462.555,182.99 452.5,196 C427.87,227.87 406.241,268.7 392.42,297.37 " fill="none" style="stroke: #A80036; stroke-width: 1.0;"/><polygon fill="none" points="482.091,152.95,501.437,144.3,491.704,163.13,482.091,152.95" style="stroke: #A80036; stroke-width: 1.0;"/><path d="M748.455,152.75 C781.892,190.3 830.046,244.39 864.79,283.41 " fill="none" style="stroke: #A80036; stroke-width: 1.0;"/><polygon fill="none" points="743.18,157.35,735.108,137.76,753.636,148.04,743.18,157.35" style="stroke: #A80036; stroke-width: 1.0;"/><path d="M944.367,394.93 C972.595,442.49 1010.52,506.388 1031.31,541.402 " fill="none" style="stroke: #A80036; stroke-width: 1.0;"/><polygon fill="none" points="937.598,383.52,937.2173,390.721,943.7179,393.8421,944.0987,386.6411,937.598,383.52" style="stroke: #A80036; stroke-width: 1.0;"/><path d="M1072.06,1375.3939 C1172.1,1355.2326 1303.17,1321.768 1336.5,1280 C1369.42,1238.749 1368.18,1176.152 1361.74,1132.1 " fill="none" style="stroke: #A80036; stroke-width: 1.0;"/><polygon fill="none" points="1059.09,1377.968,1065.7535,1380.7245,1070.8608,1375.6338,1064.1973,1372.8773,1059.09,1377.968" style="stroke: #A80036; stroke-width: 1.0;"/><path d="M777.569,1125.604 C789.986,1174.444 814.503,1253.112 854.5,1311 C859.387,1318.073 864.983,1324.943 870.965,1331.513 " fill="none" style="stroke: #A80036; stroke-width: 1.0;"/><polygon fill="none" points="879.971,1340.912,878.7082,1333.8123,871.669,1332.2473,872.9318,1339.347,879.971,1340.912" style="stroke: #A80036; stroke-width: 1.0;"/><path d="M1259.5,1252.745 C1245.83,1269.188 1222.06,1295.135 1196.5,1311 C1158.44,1334.628 1112.97,1352.801 1071.6,1366.1922 " fill="none" style="stroke: #A80036; stroke-width: 1.0;"/><polygon fill="#A80036" points="1059.2,1370.1067,1066.1259,1372.1146,1070.6432,1366.4937,1063.7173,1364.4858,1059.2,1370.1067" style="stroke: #A80036; stroke-width: 1.0;"/><path d="M559.44,1035.921 C604.358,1020.159 657.415,1004.323 707,996.5 C815.656,979.358 1095.55,968.771 1202,996.5 C1221.4,1001.554 1240.95,1009.762 1259.21,1019.097 " fill="none" style="stroke: #A80036; stroke-width: 1.0;"/><polygon fill="none" points="1262.74,1013.047,1276.99,1028.733,1256.07,1025.355,1262.74,1013.047" style="stroke: #A80036; stroke-width: 1.0;"/><path d="M517.129,1131.125 C543.355,1151.051 573.141,1173.683 598.257,1192.767 " fill="none" style="stroke: #A80036; stroke-width: 1.0;"/><polygon fill="#A80036" points="506.514,1123.059,508.8712,1129.874,516.0686,1130.3192,513.7113,1123.5042,506.514,1123.059" style="stroke: #A80036; stroke-width: 1.0;"/><path d="M450.5,1136.583 C450.5,1166.427 450.5,1200.87 450.5,1220.227 " fill="none" style="stroke: #A80036; stroke-width: 1.0;"/><polygon fill="#A80036" points="450.5,1123.265,446.5,1129.265,450.5,1135.265,454.5,1129.265,450.5,1123.265" style="stroke: #A80036; stroke-width: 1.0;"/><path d="M449.064,962.559 C449.349,985.551 449.692,1013.276 449.972,1035.848 " fill="none" style="stroke: #A80036; stroke-width: 1.0;"/><polygon fill="none" points="448.9,949.294,444.9748,955.3432,449.049,961.2931,452.9742,955.2439,448.9,949.294" style="stroke: #A80036; stroke-width: 1.0;"/><path d="M732.71,786.247 C719.371,792.614 705.565,799.084 692.5,805 C629.183,833.669 611.731,837.142 548.5,866 C536.804,871.338 524.436,877.209 512.536,882.976 " fill="none" style="stroke: #A80036; stroke-width: 1.0;"/><polygon fill="none" points="744.793,780.448,737.653,779.4376,733.9743,785.6398,741.1142,786.6501,744.793,780.448" style="stroke: #A80036; stroke-width: 1.0;"/><path d="M688.291,748.5 C707.185,748.5 726.079,748.5 744.973,748.5 " fill="none" style="stroke: #A80036; stroke-width: 1.0;"/><polygon fill="#A80036" points="675.211,748.5,681.211,752.5,687.211,748.5,681.211,744.5,675.211,748.5" style="stroke: #A80036; stroke-width: 1.0;"/><path d="M491.069,817.152 C481.163,839.921 470.57,864.27 462.429,882.983 " fill="none" style="stroke: #A80036; stroke-width: 1.0;"/><polygon fill="#A80036" points="496.325,805.07,490.2637,808.9765,491.5384,816.074,497.5997,812.1675,496.325,805.07" style="stroke: #A80036; stroke-width: 1.0;"/><path d="M628.16,811.583 C663.316,831.856 701.538,853.896 733.628,872.401 " fill="none" style="stroke: #A80036; stroke-width: 1.0;"/><polygon fill="#A80036" points="616.865,805.07,620.0644,811.5325,627.2603,811.0648,624.0609,804.6023,616.865,805.07" style="stroke: #A80036; stroke-width: 1.0;"/><path d="M739.446,1286.651 C754.074,1294.899 769.177,1303.28 783.5,1311 C802.802,1321.403 823.508,1332.217 843.561,1342.515 " fill="none" style="stroke: #A80036; stroke-width: 1.0;"/><polygon fill="#A80036" points="727.841,1280.08,731.0912,1286.5171,738.2832,1285.9927,735.033,1279.5556,727.841,1280.08" style="stroke: #A80036; stroke-width: 1.0;"/><path d="M654.5,1280.109 C654.5,1297.781 654.5,1318.578 654.5,1337.667 " fill="none" style="stroke: #A80036; stroke-width: 1.0;"/><polygon fill="none" points="661.5,1337.857,654.5,1357.8567,647.5,1337.857,661.5,1337.857" style="stroke: #A80036; stroke-width: 1.0;"/><path d="M536.648,448.29 C535.472,467.816 534.291,487.438 533.237,504.947 " fill="none" style="stroke: #A80036; stroke-width: 1.0;"/><polygon fill="none" points="529.677,447.6,537.866,428.06,543.651,448.45,529.677,447.6" style="stroke: #A80036; stroke-width: 1.0;"/><path d="M1334.2,377.7 C1320.96,398.85 1302.11,422.58 1278.5,436 C1051.64,564.896 949.088,443.58 695.5,505 C678.906,509.019 661.705,514.21 644.94,519.875 " fill="none" style="stroke: #A80036; stroke-width: 1.0;"/><polygon fill="none" points="1328.31,373.91,1344.38,360.11,1340.42,380.93,1328.31,373.91" style="stroke: #A80036; stroke-width: 1.0;"/><path d="M644.879,612.935 C661.807,619.136 679.071,625.326 695.5,631 C780.131,660.228 802.585,663.604 887.5,692 C910.434,699.669 935.144,708.214 958.055,716.255 " fill="none" style="stroke: #A80036; stroke-width: 1.0;"/><polygon fill="none" points="960.681,709.758,977.216,723.009,956.027,722.962,960.681,709.758" style="stroke: #A80036; stroke-width: 1.0;"/><path d="M200.293,371.26 C230.356,390.83 268.215,415.11 302.5,436 C340.289,459.024 382.125,483.459 419.481,504.912 " fill="none" style="stroke: #A80036; stroke-width: 1.0;"/><polygon fill="none" points="196.047,376.85,183.133,360.05,203.705,365.13,196.047,376.85" style="stroke: #A80036; stroke-width: 1.0;"/><path d="M525.701,644.355 C524.898,660.264 524.066,676.776 523.308,691.803 " fill="none" style="stroke: #A80036; stroke-width: 1.0;"/><polygon fill="#A80036" points="526.365,631.18,522.0674,636.9706,525.7597,643.1647,530.0573,637.3741,526.365,631.18" style="stroke: #A80036; stroke-width: 1.0;"/><path d="M403.71,630.46 C381.504,647.228 361.392,667.652 348.5,692 C291.515,799.622 304.663,852.386 348.5,966 C358.75,992.564 378.505,1016.737 397.921,1035.809 " fill="none" style="stroke: #A80036; stroke-width: 1.0;"/><polygon fill="#A80036" points="414.398,622.766,407.1915,623.0245,404.6584,629.776,411.8649,629.5175,414.398,622.766" style="stroke: #A80036; stroke-width: 1.0;"/><path d="M1148.85,959.643 C1182.78,979.641 1223.57,1003.684 1259.56,1024.898 " fill="none" style="stroke: #A80036; stroke-width: 1.0;"/><polygon fill="none" points="1263.12,1018.869,1276.79,1035.055,1256.01,1030.929,1263.12,1018.869" style="stroke: #A80036; stroke-width: 1.0;"/><path d="M1023.46,969.815 C1009.45,986.755 995.903,1006.48 987.5,1027 C944.632,1131.677 943.621,1266.488 947.224,1340.92 " fill="none" style="stroke: #A80036; stroke-width: 1.0;"/><polygon fill="#A80036" points="1032.2,959.645,1025.2552,961.5865,1024.3763,968.7439,1031.3211,966.8023,1032.2,959.645" style="stroke: #A80036; stroke-width: 1.0;"/><path d="M1075.11,973.164 C1074.32,1005.188 1073.38,1042.915 1072.87,1063.403 " fill="none" style="stroke: #A80036; stroke-width: 1.0;"/><polygon fill="#A80036" points="1075.44,959.855,1071.2923,965.7538,1075.1421,971.8513,1079.2898,965.9525,1075.44,959.855" style="stroke: #A80036; stroke-width: 1.0;"/><path d="M902.343,605.027 C929.64,620.082 959.576,639.178 983.5,661 C992.333,669.056 1000.661,678.566 1008.18,688.28 " fill="none" style="stroke: #A80036; stroke-width: 1.0;"/><polygon fill="none" points="1013.93,684.296,1020,704.599,1002.597,692.511,1013.93,684.296" style="stroke: #A80036; stroke-width: 1.0;"/><path d="M406.485,386.78 C418.805,404.47 434.445,423.02 452.5,436 C531.915,493.114 569.252,472.456 661.5,505 C684.587,513.145 709.357,522.254 732.505,530.929 " fill="none" style="stroke: #A80036; stroke-width: 1.0;"/><polygon fill="none" points="400.571,390.53,395.513,369.95,412.299,382.88,400.571,390.53" style="stroke: #A80036; stroke-width: 1.0;"/><path d="M851.407,616.66 C882.685,675.806 935.299,772.807 960.5,805 C979.49,829.258 1003.82,853.16 1025.29,872.455 " fill="none" style="stroke: #A80036; stroke-width: 1.0;"/><polygon fill="#A80036" points="845.262,605.008,844.5225,612.1811,850.8594,615.6226,851.5989,608.4495,845.262,605.008" style="stroke: #A80036; stroke-width: 1.0;"/><path d="M1350.5,966.333 C1350.5,979.084 1350.5,993.073 1350.5,1006.717 " fill="none" style="stroke: #A80036; stroke-width: 1.0;"/><polygon fill="none" points="1357.5,1006.953,1350.5,1026.953,1343.5,1006.953,1357.5,1006.953" style="stroke: #A80036; stroke-width: 1.0;"/><path d="M1299.18,976.465 C1285.88,992.569 1271.83,1010.199 1259.5,1027 C1180.21,1135.029 1185.15,1180.4 1095.5,1280 C1075.92,1301.75 1052.07,1322.758 1029.45,1340.803 " fill="none" style="stroke: #A80036; stroke-width: 1.0;"/><polygon fill="none" points="1307.8,966.128,1300.8862,968.1772,1300.1186,975.3473,1307.0324,973.2981,1307.8,966.128" style="stroke: #A80036; stroke-width: 1.0;"/><path d="M1471.74,916 C1502.58,916 1533.41,916 1564.25,916 " fill="none" style="stroke: #A80036; stroke-width: 1.0;"/><polygon fill="none" points="1577.47,916,1571.47,912,1565.47,916,1571.47,920,1577.47,916" style="stroke: #A80036; stroke-width: 1.0;"/><path d="M1611.87,794.663 C1620.87,825.066 1632.42,864.064 1639.89,889.29 " fill="none" style="stroke: #A80036; stroke-width: 1.0;"/><polygon fill="none" points="1608.06,781.803,1605.9274,788.6915,1611.4658,793.3095,1613.5984,786.421,1608.06,781.803" style="stroke: #A80036; stroke-width: 1.0;"/><path d="M1776.39,807.264 C1742.82,835.323 1704.19,867.613 1678.05,889.469 " fill="none" style="stroke: #A80036; stroke-width: 1.0;"/><polygon fill="#A80036" points="1786.63,798.707,1779.4607,799.4823,1777.4189,806.3983,1784.5882,805.623,1786.63,798.707" style="stroke: #A80036; stroke-width: 1.0;"/><path d="M1656.87,748.5 C1675.44,748.5 1694.01,748.5 1712.58,748.5 " fill="none" style="stroke: #A80036; stroke-width: 1.0;"/><polygon fill="#A80036" points="1725.77,748.5,1719.77,744.5,1713.77,748.5,1719.77,752.5,1725.77,748.5" style="stroke: #A80036; stroke-width: 1.0;"/><path d="M2033.36,764.515 C1987.98,803.504 1859.7,908.893 1735.5,966 C1640.09,1009.868 1523.5,1041.09 1443.78,1059.344 " fill="none" style="stroke: #A80036; stroke-width: 1.0;"/><polygon fill="none" points="1445.14,1066.213,1424.09,1063.76,1442.07,1052.552,1445.14,1066.213" style="stroke: #A80036; stroke-width: 1.0;"/><path d="M1362.99,628.19 C1286.39,656.976 1197.22,690.487 1132.91,714.651 " fill="none" style="stroke: #A80036; stroke-width: 1.0;"/><polygon fill="none" points="1134.98,721.352,1113.8,721.835,1130.06,708.247,1134.98,721.352" style="stroke: #A80036; stroke-width: 1.0;"/><path d="M1386.42,376.92 C1411.67,412.71 1448.16,464.442 1476.7,504.902 " fill="none" style="stroke: #A80036; stroke-width: 1.0;"/><polygon fill="none" points="1380.49,380.65,1374.68,360.27,1391.93,372.58,1380.49,380.65" style="stroke: #A80036; stroke-width: 1.0;"/><path d="M1696.8,375.46 C1663.82,411.29 1615.41,463.888 1577.66,504.902 " fill="none" style="stroke: #A80036; stroke-width: 1.0;"/><polygon fill="none" points="1692.09,370.24,1710.78,360.27,1702.39,379.73,1692.09,370.24" style="stroke: #A80036; stroke-width: 1.0;"/><path d="M738.514,386.75 C750.869,405.05 767.044,424.01 786.5,436 C810.95,451.07 1154.36,508.22 1362.67,541.852 " fill="none" style="stroke: #A80036; stroke-width: 1.0;"/><polygon fill="none" points="732.495,390.32,727.856,369.65,744.376,382.92,732.495,390.32" style="stroke: #A80036; stroke-width: 1.0;"/><path d="M1645.58,637.699 C1682.47,657.958 1722.07,679.711 1756.22,698.467 " fill="none" style="stroke: #A80036; stroke-width: 1.0;"/><polygon fill="#A80036" points="1633.71,631.18,1637.0438,637.5742,1644.2284,636.9561,1640.8946,630.5619,1633.71,631.18" style="stroke: #A80036; stroke-width: 1.0;"/><path d="M1691.01,620.111 C1704.35,623.874 1717.63,627.545 1730.5,631 C1841.79,660.879 1879.3,640.737 1982.5,692 C2003.11,702.236 2023.06,719.706 2035.97,732.315 " fill="none" style="stroke: #A80036; stroke-width: 1.0;"/><polygon fill="#A80036" points="1678.22,616.479,1682.8967,621.9679,1689.7622,619.7621,1685.0854,614.2731,1678.22,616.479" style="stroke: #A80036; stroke-width: 1.0;"/><path d="M1425.69,640.622 C1410.53,656.031 1396.55,673.351 1386.5,692 C1357.11,746.551 1350.29,818.711 1349.37,865.964 " fill="none" style="stroke: #A80036; stroke-width: 1.0;"/><polygon fill="#A80036" points="1435.26,631.281,1428.1726,632.6111,1426.6745,639.6648,1433.7619,638.3348,1435.26,631.281" style="stroke: #A80036; stroke-width: 1.0;"/><path d="M1492.88,643.703 C1480.63,676.832 1467.36,712.71 1460.08,732.409 " fill="none" style="stroke: #A80036; stroke-width: 1.0;"/><polygon fill="#A80036" points="1497.51,631.18,1491.6782,635.4214,1493.3503,642.436,1499.1821,638.1946,1497.51,631.18" style="stroke: #A80036; stroke-width: 1.0;"/><path d="M1691.32,568 C1710.21,568 1729.1,568 1747.99,568 " fill="none" style="stroke: #A80036; stroke-width: 1.0;"/><polygon fill="none" points="1678.24,568,1684.24,572,1690.24,568,1684.24,564,1678.24,568" style="stroke: #A80036; stroke-width: 1.0;"/><path d="M2002.8,349.65 C1988.35,380.17 1951.02,448.39 1895.5,475 C1828.29,507.217 1803.01,487.756 1730.5,505 C1717.61,508.066 1704.33,511.446 1691.02,514.999 " fill="none" style="stroke: #A80036; stroke-width: 1.0;"/><polygon fill="#A80036" points="1678.25,518.453,1685.0872,520.7449,1689.8325,515.3151,1682.9953,513.0232,1678.25,518.453" style="stroke: #A80036; stroke-width: 1.0;"/><text fill="#000000" font-family="sans-serif" font-size="13" lengthAdjust="spacingAndGlyphs" textLength="37" x="1920.5" y="471.5684">Agent</text><path d="M1505.55,349.75 C1507.5,378.13 1511.81,440.76 1515.31,491.519 " fill="none" style="stroke: #A80036; stroke-width: 1.0;"/><polygon fill="#A80036" points="1516.22,504.809,1519.7985,498.5485,1515.396,492.8373,1511.8174,499.0978,1516.22,504.809" style="stroke: #A80036; stroke-width: 1.0;"/><text fill="#000000" font-family="sans-serif" font-size="13" lengthAdjust="spacingAndGlyphs" textLength="41" x="1514.5" y="471.5684">Router</text><path d="M1917.91,338.6 C1919.18,353.65 1921.54,406.55 1895.5,436 C1879.85,453.69 1773.56,489.967 1678.11,519.867 " fill="none" style="stroke: #A80036; stroke-width: 1.0;"/><text fill="#000000" font-family="sans-serif" font-size="13" lengthAdjust="spacingAndGlyphs" textLength="33" x="1853.5" y="471.5684">Node</text><path d="M1504.5,113.27 C1504.5,138.79 1504.5,271.78 1504.5,317.24 " fill="none" style="stroke: #A80036; stroke-width: 1.0;"/><path d="M2009.5,113.27 C2009.5,138.79 2009.5,271.78 2009.5,317.24 " fill="none" style="stroke: #A80036; stroke-width: 1.0;"/><path d="M1046.28,607.697 C1046.12,636.295 1045.9,675.224 1045.74,704.741 " fill="none" style="stroke: #A80036; stroke-width: 1.0;"/><polygon fill="none" points="1046.36,594.575,1042.3264,600.5525,1046.2927,606.5748,1050.3263,600.5973,1046.36,594.575" style="stroke: #A80036; stroke-width: 1.0;"/><path d="M626.176,932.194 C645.296,951.987 679.845,987.755 709.997,1018.969 " fill="none" style="stroke: #A80036; stroke-width: 1.0;"/><polygon fill="none" points="715.052,1014.127,723.912,1033.376,704.983,1023.854,715.052,1014.127" style="stroke: #A80036; stroke-width: 1.0;"/><path d="M922.051,959.59 C928.613,961.811 935.13,963.963 941.5,966 C971.66,975.644 1145.89,1023.106 1257.01,1053.219 " fill="none" style="stroke: #A80036; stroke-width: 1.0;"/><polygon fill="none" points="1259.16,1046.549,1276.63,1058.535,1255.5,1060.062,1259.16,1046.549" style="stroke: #A80036; stroke-width: 1.0;"/><path d="M827.147,972.011 C833.228,989.523 839.819,1009.016 845.5,1027 C880.431,1137.569 916.774,1268.259 936.522,1340.824 " fill="none" style="stroke: #A80036; stroke-width: 1.0;"/><polygon fill="#A80036" points="822.829,959.66,821.0329,966.6438,826.7887,970.9879,828.5848,964.004,822.829,959.66" style="stroke: #A80036; stroke-width: 1.0;"/><path d="M793.744,972.539 C788.819,992.425 783.332,1014.579 778.654,1033.467 " fill="none" style="stroke: #A80036; stroke-width: 1.0;"/><polygon fill="#A80036" points="796.886,959.855,791.5607,964.7172,794.0007,971.503,799.326,966.6407,796.886,959.855" style="stroke: #A80036; stroke-width: 1.0;"/><path d="M1462.66,764.527 C1481.27,800.981 1522.78,896.242 1489.5,966 C1478.48,989.104 1460.13,1008.996 1440.33,1025.348 " fill="none" style="stroke: #A80036; stroke-width: 1.0;"/><polygon fill="none" points="1444.37,1031.069,1424.25,1037.697,1435.85,1019.965,1444.37,1031.069" style="stroke: #A80036; stroke-width: 1.0;"/><path d="M1343.94,379.64 C1329.68,439.45 1312.4,547.182 1345.5,631 C1363,675.311 1406.19,712.669 1432.65,732.415 " fill="none" style="stroke: #A80036; stroke-width: 1.0;"/><polygon fill="none" points="1337.15,377.91,1348.86,360.25,1350.72,381.36,1337.15,377.91" style="stroke: #A80036; stroke-width: 1.0;"/><path d="M1243.18,145.37 C1254.51,160.73 1267.52,178.98 1278.5,196 C1302.77,233.61 1327.95,279.05 1342.92,306.86 " fill="none" style="stroke: #A80036; stroke-width: 1.0;"/><polygon fill="none" points="1235.27,134.76,1235.6462,141.9613,1242.4383,144.3837,1242.062,137.1824,1235.27,134.76" style="stroke: #A80036; stroke-width: 1.0;"/><path d="M450.5,1252.746 C450.5,1287.878 450.5,1373.016 450.5,1392.4876 " fill="none" style="stroke: #A80036; stroke-width: 1.0;"/><path d="M1072.5,1095.644 C1072.5,1129.771 1072.5,1211.253 1072.5,1231.09 " fill="none" style="stroke: #A80036; stroke-width: 1.0;"/></g></svg>