<?xml version="1.0" encoding="UTF-8" standalone="yes"?><svg xmlns="http://www.w3.org/2000/svg" xmlns:xlink="http://www.w3.org/1999/xlink" height="377pt" style="width:327px;height:377px;" version="1.1" viewBox="0 0 327 377" width="327pt"><defs><filter height="300%" id="f1" width="300%" x="-1" y="-1"><feGaussianBlur result="blurOut" stdDeviation="2.0"/><feColorMatrix in="blurOut" result="blurOut2" type="matrix" values="0 0 0 0 0 0 0 0 0 0 0 0 0 0 0 0 0 0 .4 0"/><feOffset dx="4.0" dy="4.0" in="blurOut2" result="blurOut3"/><feBlend in="SourceGraphic" in2="blurOut3" mode="normal"/></filter></defs><g><rect fill="#FEFECE" filter="url(#f1)" height="169.5508" style="stroke: #A80036; stroke-width: 1.5;" width="138" x="6" y="8"/><ellipse cx="37.2" cy="24" fill="#B4A7E5" rx="11" ry="11" style="stroke: #A80036; stroke-width: 1.0;"/><path d="M33.1277,19.7651 L33.1277,17.6069 L40.5071,17.6069 L40.5071,19.7651 L38.0418,19.7651 L38.0418,27.8418 L40.5071,27.8418 L40.5071,30 L33.1277,30 L33.1277,27.8418 L35.5931,27.8418 L35.5931,19.7651 Z "/><text fill="#000000" font-family="sans-serif" font-size="12" font-style="italic" lengthAdjust="spacingAndGlyphs" textLength="70" x="54.8" y="28.5352">RouterClient</text><line style="stroke: #A80036; stroke-width: 1.5;" x1="7" x2="143" y1="40" y2="40"/><ellipse cx="17" cy="51.9775" fill="#84BE84" rx="3" ry="3" style="stroke: #038048; stroke-width: 1.0;"/><text fill="#000000" font-family="sans-serif" font-size="11" lengthAdjust="spacingAndGlyphs" textLength="66" x="26" y="54.6348">clientLoad();</text><ellipse cx="17" cy="64.9326" fill="#84BE84" rx="3" ry="3" style="stroke: #038048; stroke-width: 1.0;"/><text fill="#000000" font-family="sans-serif" font-size="11" lengthAdjust="spacingAndGlyphs" textLength="112" x="26" y="67.5898">clientResolveHosts();</text><ellipse cx="17" cy="77.8877" fill="#84BE84" rx="3" ry="3" style="stroke: #038048; stroke-width: 1.0;"/><text fill="#000000" font-family="sans-serif" font-size="11" lengthAdjust="spacingAndGlyphs" textLength="112" x="26" y="80.5449">clientGetEndpoints();</text><text fill="#000000" font-family="sans-serif" font-size="11" lengthAdjust="spacingAndGlyphs" textLength="0" x="29" y="93.5"/><ellipse cx="17" cy="103.7979" fill="#84BE84" rx="3" ry="3" style="stroke: #038048; stroke-width: 1.0;"/><text fill="#000000" font-family="sans-serif" font-size="11" lengthAdjust="spacingAndGlyphs" textLength="92" x="26" y="106.4551">clientConnect1();</text><ellipse cx="17" cy="116.7529" fill="#84BE84" rx="3" ry="3" style="stroke: #038048; stroke-width: 1.0;"/><text fill="#000000" font-family="sans-serif" font-size="11" lengthAdjust="spacingAndGlyphs" textLength="92" x="26" y="119.4102">clientConnect2();</text><ellipse cx="17" cy="129.708" fill="#84BE84" rx="3" ry="3" style="stroke: #038048; stroke-width: 1.0;"/><text fill="#000000" font-family="sans-serif" font-size="11" lengthAdjust="spacingAndGlyphs" textLength="76" x="26" y="132.3652">clientReport();</text><text fill="#000000" font-family="sans-serif" font-size="11" lengthAdjust="spacingAndGlyphs" textLength="0" x="29" y="145.3203"/><ellipse cx="17" cy="155.6182" fill="#84BE84" rx="3" ry="3" style="stroke: #038048; stroke-width: 1.0;"/><text fill="#000000" font-family="sans-serif" font-size="11" lengthAdjust="spacingAndGlyphs" textLength="94" x="26" y="158.2754">clientPortStates();</text><ellipse cx="17" cy="168.5732" fill="#84BE84" rx="3" ry="3" style="stroke: #038048; stroke-width: 1.0;"/><text fill="#000000" font-family="sans-serif" font-size="11" lengthAdjust="spacingAndGlyphs" textLength="107" x="26" y="171.2305">clientPathQualitys();</text><rect fill="#FEFECE" filter="url(#f1)" height="91.8203" style="stroke: #A80036; stroke-width: 1.5;" width="139" x="179.5" y="47"/><ellipse cx="210.7" cy="63" fill="#B4A7E5" rx="11" ry="11" style="stroke: #A80036; stroke-width: 1.0;"/><path d="M206.6277,58.7651 L206.6277,56.6069 L214.0071,56.6069 L214.0071,58.7651 L211.5418,58.7651 L211.5418,66.8418 L214.0071,66.8418 L214.0071,69 L206.6277,69 L206.6277,66.8418 L209.0931,66.8418 L209.0931,58.7651 Z "/><text fill="#000000" font-family="sans-serif" font-size="12" font-style="italic" lengthAdjust="spacingAndGlyphs" textLength="71" x="228.3" y="67.5352">RouterAgent</text><line style="stroke: #A80036; stroke-width: 1.5;" x1="180.5" x2="317.5" y1="79" y2="79"/><ellipse cx="190.5" cy="90.9775" fill="#84BE84" rx="3" ry="3" style="stroke: #038048; stroke-width: 1.0;"/><text fill="#000000" font-family="sans-serif" font-size="11" lengthAdjust="spacingAndGlyphs" textLength="113" x="199.5" y="93.6348">agentResolveHosts();</text><ellipse cx="190.5" cy="103.9326" fill="#84BE84" rx="3" ry="3" style="stroke: #038048; stroke-width: 1.0;"/><text fill="#000000" font-family="sans-serif" font-size="11" lengthAdjust="spacingAndGlyphs" textLength="79" x="199.5" y="106.5898">agentUpdate();</text><ellipse cx="190.5" cy="116.8877" fill="#84BE84" rx="3" ry="3" style="stroke: #038048; stroke-width: 1.0;"/><text fill="#000000" font-family="sans-serif" font-size="11" lengthAdjust="spacingAndGlyphs" textLength="98" x="199.5" y="119.5449">agentListenStart();</text><ellipse cx="190.5" cy="129.8428" fill="#84BE84" rx="3" ry="3" style="stroke: #038048; stroke-width: 1.0;"/><text fill="#000000" font-family="sans-serif" font-size="11" lengthAdjust="spacingAndGlyphs" textLength="97" x="199.5" y="132.5">agentListenStop();</text><rect fill="#FEFECE" filter="url(#f1)" height="130.6855" style="stroke: #A80036; stroke-width: 1.5;" width="136" x="7" y="238"/><ellipse cx="37.75" cy="254" fill="#ADD1B2" rx="11" ry="11" style="stroke: #A80036; stroke-width: 1.0;"/><path d="M40.7231,259.6431 Q40.1421,259.9419 39.5029,260.0913 Q38.8638,260.2407 38.1582,260.2407 Q35.6514,260.2407 34.3315,258.5889 Q33.0117,256.937 33.0117,253.8159 Q33.0117,250.6865 34.3315,249.0347 Q35.6514,247.3828 38.1582,247.3828 Q38.8638,247.3828 39.5112,247.5322 Q40.1587,247.6816 40.7231,247.9805 L40.7231,250.7031 Q40.0923,250.1221 39.4988,249.8523 Q38.9053,249.5825 38.2744,249.5825 Q36.9297,249.5825 36.2449,250.6492 Q35.5601,251.7158 35.5601,253.8159 Q35.5601,255.9077 36.2449,256.9744 Q36.9297,258.041 38.2744,258.041 Q38.9053,258.041 39.4988,257.7712 Q40.0923,257.5015 40.7231,256.9204 Z "/><text fill="#000000" font-family="sans-serif" font-size="12" lengthAdjust="spacingAndGlyphs" textLength="69" x="55.25" y="258.5352">RouterNode</text><line style="stroke: #A80036; stroke-width: 1.5;" x1="8" x2="142" y1="270" y2="270"/><ellipse cx="18" cy="281.9775" fill="#84BE84" rx="3" ry="3" style="stroke: #038048; stroke-width: 1.0;"/><text fill="#000000" font-family="sans-serif" font-size="11" lengthAdjust="spacingAndGlyphs" textLength="83" x="27" y="284.6348">nodeUpdate1();</text><ellipse cx="18" cy="294.9326" fill="#84BE84" rx="3" ry="3" style="stroke: #038048; stroke-width: 1.0;"/><text fill="#000000" font-family="sans-serif" font-size="11" lengthAdjust="spacingAndGlyphs" textLength="83" x="27" y="297.5898">nodeUpdate2();</text><ellipse cx="18" cy="307.8877" fill="#84BE84" rx="3" ry="3" style="stroke: #038048; stroke-width: 1.0;"/><text fill="#000000" font-family="sans-serif" font-size="11" lengthAdjust="spacingAndGlyphs" textLength="90" x="27" y="310.5449">nodeGetNodes();</text><ellipse cx="18" cy="320.8428" fill="#84BE84" rx="3" ry="3" style="stroke: #038048; stroke-width: 1.0;"/><text fill="#000000" font-family="sans-serif" font-size="11" lengthAdjust="spacingAndGlyphs" textLength="110" x="27" y="323.5">nodeGetEndpoints();</text><ellipse cx="18" cy="333.7979" fill="#84BE84" rx="3" ry="3" style="stroke: #038048; stroke-width: 1.0;"/><text fill="#000000" font-family="sans-serif" font-size="11" lengthAdjust="spacingAndGlyphs" textLength="83" x="27" y="336.4551">nodeConnect();</text><ellipse cx="18" cy="346.7529" fill="#84BE84" rx="3" ry="3" style="stroke: #038048; stroke-width: 1.0;"/><text fill="#000000" font-family="sans-serif" font-size="11" lengthAdjust="spacingAndGlyphs" textLength="92" x="27" y="349.4102">nodePortStates();</text><ellipse cx="18" cy="359.708" fill="#84BE84" rx="3" ry="3" style="stroke: #038048; stroke-width: 1.0;"/><text fill="#000000" font-family="sans-serif" font-size="11" lengthAdjust="spacingAndGlyphs" textLength="105" x="27" y="362.3652">nodePathQualitys();</text></g></svg>